<?xml version="1.0" encoding="UTF-8"?>
<svg id="Layer_2" data-name="Layer 2" xmlns="http://www.w3.org/2000/svg" viewBox="0 0 181.7 313.51">
  <defs>
    <style>
      .cls-1, .cls-2 {
        stroke-miterlimit: 2.41;
      }

      .cls-1, .cls-2, .cls-3 {
        fill: none;
        stroke-width: .28px;
      }

      .cls-1, .cls-3 {
        stroke: #231f20;
      }

      .cls-2 {
        stroke: #000;
      }

      .cls-3 {
        stroke-miterlimit: 10;
      }
    </style>
  </defs>
  <g id="Laag_1" data-name="Laag 1">
    <g>
      <rect class="cls-3" x=".14" y=".14" width="2.27" height="313.23"/>
      <rect class="cls-2" x="2.41" y="256.34" width="73.48" height="2.27"/>
      <rect class="cls-3" x="2.41" y="305.33" width="73.42" height="8.04"/>
      <rect class="cls-2" x="2.41" y="200.84" width="73.48" height="2.27"/>
      <rect class="cls-2" x="2.41" y="126.42" width="73.42" height="2.27"/>
      <path class="cls-2" d="m181.56,26.36c0-14.48-11.74-26.22-26.22-26.22s-26.22,11.74-26.22,26.22c0,.05,0,.1,0,.16h0v286.85h52.44V26.52h0c0-.05,0-.1,0-.16Z"/>
      <rect class="cls-3" x="75.83" y=".14" width="2.27" height="313.23"/>
      <rect class="cls-2" x="2.41" y="74.29" width="73.42" height="2.27"/>
      <rect class="cls-2" x="2.41" y="142.57" width="73.48" height="2.27"/>
      <rect class="cls-1" x="2.41" y="33.6" width="73.42" height="1.42"/>
      <g>
        <path class="cls-1" d="m5.15,22.37c-.51,0-.91-.39-.91-.88h0c0-.48.41-.87.91-.87h67.84c.5,0,.91.39.91.87h0c0,.48-.41.88-.91.88H5.15Z"/>
        <path class="cls-1" d="m5.15,25.87c-.51,0-.91-.39-.91-.87h0c0-.48.41-.88.91-.88h67.84c.5,0,.91.39.91.88h0c0,.48-.41.87-.91.87H5.15Z"/>
        <path class="cls-1" d="m5.21,11.87c-.5,0-.91-.39-.91-.88h0c0-.48.41-.88.91-.88h67.84c.51,0,.91.4.91.88h0c0,.48-.41.88-.91.88H5.21Z"/>
        <path class="cls-1" d="m5.21,15.37c-.5,0-.91-.39-.91-.88h0c0-.48.41-.87.91-.87h67.84c.51,0,.91.39.91.87h0c0,.48-.41.88-.91.88H5.21Z"/>
        <path class="cls-1" d="m5.21,18.87c-.51,0-.91-.39-.91-.87h0c0-.48.41-.88.91-.88h67.84c.51,0,.91.39.91.88h0c0,.48-.41.87-.91.87H5.21Z"/>
        <path class="cls-1" d="m5.14,1.89c-.5,0-.91-.39-.91-.88h0c0-.48.4-.87.91-.87h67.85c.5,0,.91.39.91.87h0c0,.48-.41.88-.91.88H5.14Z"/>
        <path class="cls-1" d="m5.14,4.79c-.5,0-.91-.39-.91-.87h0c0-.49.4-.88.91-.88h67.85c.5,0,.91.39.91.88h0c0,.48-.41.87-.91.87H5.14Z"/>
        <path class="cls-1" d="m5.14,8.3c-.5,0-.91-.4-.91-.88h0c0-.48.4-.88.91-.88h67.84c.5,0,.91.39.91.88h0c0,.48-.41.88-.91.88H5.14Z"/>
        <path class="cls-1" d="m5.18,32.87c-.51,0-.91-.39-.91-.88h0c0-.48.41-.87.91-.87h67.84c.5,0,.91.39.91.87h0c0,.48-.41.88-.91.88H5.18Z"/>
        <path class="cls-1" d="m5.25,29.37c-.5,0-.91-.39-.91-.88h0c0-.48.41-.88.91-.88h67.84c.5,0,.91.4.91.88h0c0,.48-.41.88-.91.88H5.25Z"/>
      </g>
      <line class="cls-1" x1="4.24" y1="1.01" x2="2.41" y2="1.01"/>
      <line class="cls-1" x1="73.9" y1="1.01" x2="75.83" y2="1.01"/>
    </g>
  </g>
</svg>