<?xml version="1.0" encoding="UTF-8"?>
<svg id="Layer_2" data-name="Layer 2" xmlns="http://www.w3.org/2000/svg" viewBox="0 0 156.19 313.51">
  <defs>
    <style>
      .cls-1, .cls-2 {
        stroke-miterlimit: 2.41;
      }

      .cls-1, .cls-2, .cls-3 {
        fill: none;
        stroke-width: .28px;
      }

      .cls-1, .cls-3 {
        stroke: #231f20;
      }

      .cls-2 {
        stroke: #000;
      }

      .cls-3 {
        stroke-miterlimit: 10;
      }
    </style>
  </defs>
  <g id="Laag_1" data-name="Laag 1">
    <g>
      <rect class="cls-3" x=".14" y=".14" width="2.27" height="313.23"/>
      <rect class="cls-2" x="2.47" y="256.34" width="47.91" height="2.27"/>
      <rect class="cls-3" x="2.41" y="305.33" width="47.91" height="8.04"/>
      <g>
        <rect class="cls-1" x="2.41" y="33.6" width="47.91" height="1.42"/>
        <path class="cls-1" d="m5.06,22.37c-.32,0-.57-.39-.57-.88h0c0-.48.26-.87.57-.87h42.62c.31,0,.57.39.57.87h0c0,.48-.26.88-.57.88H5.06Z"/>
        <path class="cls-1" d="m5.06,25.87c-.32,0-.57-.39-.57-.87h0c0-.48.26-.88.57-.88h42.62c.31,0,.57.39.57.88h0c0,.48-.26.87-.57.87H5.06Z"/>
        <path class="cls-1" d="m5.1,11.87c-.32,0-.57-.39-.57-.88h0c0-.48.26-.88.57-.88h42.62c.32,0,.57.4.57.88h0c0,.48-.26.88-.57.88H5.1Z"/>
        <path class="cls-1" d="m5.1,15.37c-.32,0-.57-.39-.57-.88h0c0-.48.26-.87.57-.87h42.62c.32,0,.57.39.57.87h0c0,.48-.26.88-.57.88H5.1Z"/>
        <path class="cls-1" d="m5.1,18.87c-.32,0-.57-.39-.57-.87h0c0-.48.26-.88.57-.88h42.62c.32,0,.57.39.57.88h0c0,.48-.26.87-.57.87H5.1Z"/>
        <path class="cls-1" d="m5.05,1.89c-.32,0-.57-.39-.57-.88h0c0-.48.25-.87.57-.87h42.62c.31,0,.57.39.57.87h0c0,.48-.26.88-.57.88H5.05Z"/>
        <path class="cls-1" d="m5.05,4.79c-.32,0-.57-.39-.57-.87h0c0-.49.25-.88.57-.88h42.62c.31,0,.57.39.57.88h0c0,.48-.26.87-.57.87H5.05Z"/>
        <path class="cls-1" d="m5.05,8.3c-.32,0-.57-.4-.57-.88h0c0-.48.25-.88.57-.88h42.62c.32,0,.57.39.57.88h0c0,.48-.26.88-.57.88H5.05Z"/>
        <path class="cls-1" d="m5.08,32.87c-.32,0-.57-.39-.57-.88h0c0-.48.26-.87.57-.87h42.62c.32,0,.57.39.57.87h0c0,.48-.26.88-.57.88H5.08Z"/>
        <path class="cls-1" d="m5.12,29.37c-.32,0-.57-.39-.57-.88h0c0-.48.26-.88.57-.88h42.62c.32,0,.57.4.57.88h0c0,.48-.26.88-.57.88H5.12Z"/>
      </g>
      <rect class="cls-2" x="2.47" y="200.84" width="47.91" height="2.27"/>
      <rect class="cls-2" x="2.41" y="126.42" width="47.91" height="2.27"/>
      <path class="cls-2" d="m156.05,26.36c0-14.48-11.74-26.22-26.22-26.22s-26.22,11.74-26.22,26.22c0,.05,0,.1,0,.16h0v286.85h52.44V26.52h0c0-.05,0-.1,0-.16Z"/>
      <rect class="cls-3" x="50.32" y=".14" width="2.27" height="313.23"/>
      <rect class="cls-2" x="2.41" y="74.29" width="47.91" height="2.27"/>
      <line class="cls-3" x1="4.48" y1="1.01" x2="2.41" y2="1.01"/>
      <line class="cls-3" x1="48.25" y1="1.01" x2="50.32" y2="1.01"/>
      <rect class="cls-2" x="2.47" y="142.57" width="47.91" height="2.27"/>
    </g>
  </g>
</svg>