<?xml version="1.0" encoding="UTF-8"?>
<svg id="Layer_2" data-name="Layer 2" xmlns="http://www.w3.org/2000/svg" viewBox="0 0 208.63 290.83">
  <defs>
    <style>
      .cls-1, .cls-2 {
        stroke-miterlimit: 2.41;
      }

      .cls-1, .cls-2, .cls-3 {
        fill: none;
        stroke-width: .28px;
      }

      .cls-1, .cls-3 {
        stroke: #231f20;
      }

      .cls-2 {
        stroke: #000;
      }

      .cls-3 {
        stroke-miterlimit: 10;
      }
    </style>
  </defs>
  <g id="Laag_1" data-name="Laag 1">
    <g>
      <rect class="cls-3" x=".14" y=".14" width="2.27" height="290.55"/>
      <rect class="cls-2" x="2.41" y="230.49" width="100.35" height="2.27"/>
      <rect class="cls-3" x="2.41" y="282.65" width="100.35" height="8.04"/>
      <rect class="cls-2" x="2.41" y="177.64" width="100.41" height="2.27"/>
      <rect class="cls-2" x="2.41" y="126.89" width="100.35" height="2.27"/>
      <path class="cls-2" d="m208.49,26.83c0-14.48-11.74-26.22-26.22-26.22s-26.22,11.74-26.22,26.22c0,.05,0,.1,0,.16h0v263.7h52.44V26.99h0c0-.05,0-.1,0-.16Z"/>
      <rect class="cls-3" x="102.76" y=".14" width="2.27" height="290.55"/>
      <rect class="cls-2" x="2.41" y="74.76" width="100.35" height="2.27"/>
      <g>
        <rect class="cls-1" x="2.41" y="33.61" width="100.35" height="1.42"/>
        <path class="cls-1" d="m5.25,22.4c-.7,0-1.27-.4-1.27-.9h0c0-.5.57-.9,1.27-.9h94.53c.7,0,1.26.4,1.26.9h0c0,.5-.57.9-1.26.9H5.25Z"/>
        <path class="cls-1" d="m5.25,25.9c-.7,0-1.27-.4-1.27-.9h0c0-.5.57-.9,1.27-.9h94.53c.7,0,1.26.4,1.26.9h0c0,.5-.57.9-1.26.9H5.25Z"/>
        <path class="cls-1" d="m5.25,11.91c-.7,0-1.27-.4-1.27-.9h0c0-.5.57-.91,1.27-.91h94.61c.71,0,1.27.41,1.27.91h0c0,.5-.57.9-1.27.9H5.25Z"/>
        <path class="cls-1" d="m5.25,15.41c-.7,0-1.27-.41-1.27-.91h0c0-.5.57-.9,1.27-.9h94.61c.71,0,1.27.4,1.27.9h0c0,.5-.57.91-1.27.91H5.25Z"/>
        <path class="cls-1" d="m5.25,18.9c-.71,0-1.27-.4-1.27-.9h0c0-.5.57-.9,1.27-.9h94.61c.71,0,1.27.4,1.27.9h0c0,.5-.57.9-1.27.9H5.25Z"/>
        <path class="cls-1" d="m5.24,1.9c-.7,0-1.26-.39-1.26-.88h0c0-.48.56-.87,1.26-.87h94.53c.69,0,1.26.39,1.26.87h0c0,.48-.57.88-1.26.88H5.24Z"/>
        <path class="cls-1" d="m5.24,4.83c-.7,0-1.26-.41-1.26-.9h0c0-.5.56-.91,1.26-.91h94.53c.69,0,1.26.4,1.26.91h0c0,.49-.57.9-1.26.9H5.24Z"/>
        <path class="cls-1" d="m5.24,8.33c-.7,0-1.26-.41-1.26-.91h0c0-.5.56-.9,1.26-.9h94.53c.7,0,1.27.4,1.27.9h0c0,.5-.57.91-1.27.91H5.24Z"/>
        <path class="cls-1" d="m5.22,32.91c-.7,0-1.27-.41-1.27-.91h0c0-.5.57-.9,1.27-.9h94.59c.7,0,1.27.4,1.27.9h0c0,.5-.57.91-1.27.91H5.22Z"/>
        <path class="cls-1" d="m5.25,29.41c-.7,0-1.27-.4-1.27-.9h0c0-.5.57-.91,1.27-.91h94.66c.7,0,1.27.41,1.27.91h0c0,.5-.57.9-1.27.9H5.25Z"/>
        <line class="cls-3" x1="3.98" y1="1.03" x2="2.41" y2="1.03"/>
        <line class="cls-3" x1="101.04" y1="1.03" x2="102.76" y2="1.03"/>
      </g>
    </g>
  </g>
</svg>