<?xml version="1.0" encoding="UTF-8"?>
<svg id="Layer_2" data-name="Layer 2" xmlns="http://www.w3.org/2000/svg" xmlns:xlink="http://www.w3.org/1999/xlink" viewBox="0 0 224.23 111.86">
  <defs>
    <style>
      .cls-1 {
        fill: #fff;
      }

      .cls-2 {
        clip-path: url(#clippath-2);
      }

      .cls-3 {
        clip-path: url(#clippath-1);
      }

      .cls-4 {
        clip-path: url(#clippath-4);
      }

      .cls-5 {
        clip-path: url(#clippath);
      }

      .cls-6, .cls-7 {
        fill: none;
      }

      .cls-8 {
        clip-path: url(#clippath-3);
      }

      .cls-7 {
        stroke: #000;
        stroke-miterlimit: 10;
        stroke-width: .25px;
      }

      .cls-9 {
        clip-path: url(#clippath-5);
      }
    </style>
    <clipPath id="clippath">
      <rect class="cls-6" width="224.23" height="111.86"/>
    </clipPath>
    <clipPath id="clippath-1">
      <rect class="cls-6" width="224.23" height="111.86"/>
    </clipPath>
    <clipPath id="clippath-2">
      <rect class="cls-6" width="224.23" height="111.86"/>
    </clipPath>
    <clipPath id="clippath-3">
      <rect class="cls-6" width="224.23" height="111.86"/>
    </clipPath>
    <clipPath id="clippath-4">
      <rect class="cls-6" width="224.23" height="111.86"/>
    </clipPath>
    <clipPath id="clippath-5">
      <rect class="cls-6" width="224.23" height="111.86"/>
    </clipPath>
  </defs>
  <g id="Layer_1-2" data-name="Layer 1">
    <g>
      <line class="cls-7" x1="23.5" y1="74.29" x2="26.79" y2="71.7"/>
      <polygon class="cls-1" points="26.8 51.29 49.71 59.43 49.59 58.83 26.67 50.66 26.8 51.29"/>
      <polygon class="cls-7" points="26.8 51.29 49.71 59.43 49.59 58.83 26.67 50.66 26.8 51.29"/>
      <g class="cls-5">
        <path class="cls-7" d="m27.85,69.39l-.12.48-.29.44-23.4,18.35-.8.63-.56.35-.4-.11-.06-.47.03-.41.02-.33.06-.82.25-1.84,3.84-31.67.33-.74.36-.39.44-.29.58-.34,15.56-7.69.43-.18.28-.11.29-.11.47-.04.28.1.11.27,2.15,23.24.09.74.07.49-.03.41ZM2.69,90.2s-.1,0-.15-.02l-.39-.11c-.22-.06-.39-.25-.42-.48l-.05-.47.03-.52.09-1.14.25-1.88,3.84-31.66c0-.05.02-.11.04-.16l.33-.74c.03-.06.06-.11.1-.16l.36-.39s.06-.06.1-.09l.44-.29.6-.35,15.59-7.71.47-.19.59-.22s.1-.03.15-.03c0,0,.51-.04.52-.04.07,0,.13.01.2.04l.28.1c.15.05.27.17.33.32l.11.27c.02.05.03.11.04.16l2.15,23.24.16,1.21s0,.08,0,.12l-.03.41-.13.56c-.01.07-.04.13-.08.18l-.3.44s-.07.09-.12.13l-23.39,18.35-.8.63-.6.39c-.09.06-.2.09-.3.09Z"/>
        <path class="cls-7" d="m34.53,111.74s-.08,0-.12-.01l-.33-.07c-.1-.02-.19-.07-.27-.14l-.19-.18s-.07-.08-.1-.12l-.1-.18-.13-.27-.14-.51-.08-.57-4.18-42.48v-3.31s0-.08,0-.12l.31-1.42c.02-.09.06-.17.12-.24l2.39-1.77,13.67-9.78.54-.27c.07-.03.16-.05.24-.05.01,0,.47.03.47.03.17.01.32.1.42.25l.25.37.43.96.25.64.28.77.32.95.35.99,8.07,25.03.35,1.02.31.76.15.58s.01.08.02.12l.03,1.02c0,.05,0,.11-.02.16l-.13.5s-.03.08-.04.11l-.22.42-.34.45-2.78,3.53-18.19,21.38-.62.77s-.05.06-.08.09l-.56.45c-.1.08-.22.13-.35.13Z"/>
      </g>
      <polygon class="cls-7" points="56.95 84.68 56.67 85.04 53.89 88.57 35.72 109.94 35.09 110.73 34.53 111.18 34.2 111.11 34.01 110.92 33.9 110.74 33.8 110.52 33.69 110.11 33.63 109.61 29.44 67.15 29.44 63.9 29.76 62.48 32 60.85 45.72 51.03 46.18 50.82 46.6 50.85 46.85 51.22 47 51.58 47.24 52.1 47.48 52.72 47.74 53.47 48.06 54.42 48.41 55.42 56.47 80.43 56.82 81.45 57.15 82.24 57.27 82.74 57.3 83.76 57.17 84.26 56.95 84.68"/>
      <polygon class="cls-1" points="5.63 61.53 29.44 73.59 29.44 72.99 5.63 60.92 5.63 61.53"/>
      <polygon class="cls-7" points="5.63 61.53 29.44 73.59 29.44 72.99 5.63 60.92 5.63 61.53"/>
      <g class="cls-3">
        <path class="cls-7" d="m56.81,39.36c1.96,9.53-9.09,19.9-24.68,23.16-15.59,3.26-29.82-1.81-31.77-11.34-1.96-9.53,9.09-19.89,24.68-23.16,15.59-3.26,29.82,1.82,31.78,11.34Zm-2.29,49.72l2.6-3.39m-19.5,23.19l2.97-3.52M5.82,88.29l3.27-2.64m47.2-45.36l-2.33,4.78-3.42,4.47-4.27,3.42-4.73,2.13-3.39,1.3-6.23,1.73-5.17,1.53-9.88,2.77m38.36-25.92l-1.69,4.71-2.34,3.88-2.71,3.59-3.92,3.33-2.94,1.31-5.49,1.91-7.99,2.61-13.5,4.16m38.58-28.77l-1.34,4.6-1.59,3.76-2.9,4.41-3.32,3.2-3.43,1.96-4.08,1.81-4.07,1.76-19.84,6.76m37.78-30.57l-.94,4.67-1.11,2.92-2.67,4.74-2.87,3.57-3.83,3.09-4.41,1.96-4.11,1.84-19.38,7.26m36.28-31.39l-1.26,4.56-.79,3.04-2.67,4.75-2.86,3.58-3.4,2.87-4.11,2.22-4.26,1.84-18.21,8.03M43.44,28.18l-.77,4.15-.95,3.33-2.11,4.78-2.58,4.04-3.29,2.99-3.73,2.17-4.03,1.92-17.07,8.48m30.41-32.43l-.56,3.39-.72,3.45-1.77,5.17-2.31,3.42-3.74,3.95-3.48,2.16-4,1.97-14.96,8.34m27.48-32.1l-.56,3.39-.71,3.45-1.5,4.76-2.58,3.83-3.41,3.75-3.6,2.68-4.1,2.35-11.91,7.36m24.05-31.56l-.56,3.4-.72,3.46-1.5,4.77-2.06,3.69-3.49,3.88-3.66,2.39-4.25,3.04-8.66,6.42m20.41-30.22l-.56,3.63-1,4.84-1.73,3.95-2.22,3.27-3.02,3.05-3.39,3.01-2.7,2.28-6.65,5.46m16.45-28.46l-.38,3.58-1.19,5.17-1.74,4.02-2.22,3.32-3.04,3.1-2.76,3.06-2.45,2.73-3.37,2.86m12.9-26.36l-.67,2.88-1.3,3.66-1.75,4.27-1.3,2.66-1.54,2.7-2.35,3.16-2.15,2.45-3.11,3.46m9.52-23.03l-.87,3.45-1.48,3.6-1.56,4.25-2.98,4.98-1.66,2.59-1.66,3m5.78-18.93l-.89,4.5-.71,1.83-1.15,3.13-1.13,2.52-2.71,5.52m23.63-.21c-.03.75-1.47,1.31-3.21,1.23-1.74-.07-3.13-.74-3.09-1.5.03-.75,1.47-1.3,3.21-1.23s3.13.74,3.1,1.5Zm3.96-.1c-.06,1.52-2.82,2.64-6.16,2.49-3.33-.14-5.99-1.49-5.92-3,.06-1.52,2.82-2.64,6.16-2.49,3.33.14,5.99,1.48,5.92,3Zm3.9.16c-.11,2.55-4.33,4.44-9.44,4.22-5.1-.22-9.15-2.45-9.05-5,.11-2.55,4.33-4.44,9.44-4.22,5.1.22,9.15,2.45,9.05,5Zm4.2-1.2c0,3-5.52,5.43-12.34,5.42-6.81,0-12.33-2.43-12.33-5.44,0-3,5.52-5.43,12.34-5.43,6.81,0,12.33,2.44,12.33,5.44Zm4.02-.35c0,3.74-6.95,6.77-15.52,6.77-8.57,0-15.51-3.04-15.51-6.78,0-3.74,6.95-6.77,15.52-6.77,8.57,0,15.51,3.04,15.51,6.78Zm3.21-.44c0,4.71-8.13,8.52-18.17,8.51-10.03,0-18.16-3.82-18.16-8.53s8.14-8.52,18.17-8.51c10.03,0,18.16,3.82,18.16,8.53Zm3.91-2.76c.35,5.88-8.99,11.22-20.86,11.92-11.86.7-21.77-3.5-22.12-9.38-.35-5.88,8.99-11.22,20.86-11.92,11.87-.7,21.77,3.5,22.12,9.38Zm2.91-3.79c.98,7.34-9.02,14.72-22.32,16.49-13.3,1.77-24.87-2.75-25.85-10.08-.98-7.34,9.02-14.72,22.32-16.49,13.3-1.77,24.87,2.75,25.85,10.08Zm4.89-5.24c1.92,9.27-8.93,19.37-24.25,22.55-15.31,3.18-29.29-1.77-31.21-11.04-1.93-9.28,8.93-19.37,24.24-22.54,15.31-3.18,29.29,1.77,31.21,11.04Z"/>
      </g>
      <polygon class="cls-1" points="108.76 35.1 132.25 43.32 132.25 42.91 108.76 34.71 108.76 35.1"/>
      <polygon class="cls-7" points="108.76 35.1 132.25 43.32 132.25 42.91 108.76 34.71 108.76 35.1"/>
      <g class="cls-2">
        <path class="cls-7" d="m115.91,111.74c-.08,0-.16-.02-.24-.05l-.13-.07c-.16-.08-.28-.23-.31-.4l-.1-.54-.05-.48-3.02-61.41v-3.25s0-.08.01-.12l.31-1.4c.02-.09.06-.17.12-.24l.93-1.09s.1-.09.15-.12l1.23-.68,14.16-7.98.93-.54s.07-.04.11-.05l.62-.2c.06-.02.11-.03.17-.03.22,0,.42.13.51.34l.23.54.21.64s.02.07.03.11l4.39,37.42.27,3.52.33,3.34.07,1.85.13,1.79.1,1.13c0,.05,0,.11,0,.16l-.18.88c0,.08-.04.15-.08.21l-.61.87-.68.9-18.1,23.89-.6.79c-.09.11-.21.19-.35.21l-.36.06s-.06,0-.1,0h-.12Z"/>
        <path class="cls-7" d="m82.51,88.22s-.08,0-.12-.01l-.39-.08c-.13-.03-.24-.1-.32-.2l-.11-.14c-.04-.05-.07-.11-.09-.18l-.09-.29c-.02-.07-.03-.14-.03-.2l.08-1.26.13-1.02.12-.88,1.58-12.42,4.31-34.92c0-.07.03-.13.06-.19l.51-.97.48-.93c.03-.07.09-.13.14-.18l1.3-1.03,1.11-.6,15.5-6.98.54-.16.47-.11s.09-.02.13-.02c.11,0,.22.03.32.1l.35.24c.15.1.24.28.24.46v2.21l-1.65,38.2-.02.8-.03.54-.16.67c-.02.08-.06.16-.11.22l-.58.7-.45.47-21.05,16.68-.73.55-.72.6s-.07.05-.1.07l-.4.21c-.08.04-.17.06-.26.06Z"/>
      </g>
      <polygon class="cls-7" points="106.36 68.53 105.79 69.23 105.36 69.67 84.37 86.3 83.64 86.84 82.91 87.46 82.51 87.67 82.12 87.58 82.01 87.44 81.92 87.14 81.94 86.89 82 85.88 82.13 84.9 82.25 84.03 83.84 71.6 88.14 36.67 88.66 35.71 89.14 34.78 90.44 33.75 91.47 33.2 106.93 26.23 107.4 26.1 107.85 25.99 108.2 26.23 108.2 26.94 108.2 27.64 108.2 28.45 106.55 66.62 106.53 67.44 106.51 67.96 106.36 68.53"/>
      <g class="cls-8">
        <path class="cls-7" d="m140.01,21.35c1.94,9.45-9.01,19.73-24.48,22.97-15.46,3.23-29.57-1.8-31.51-11.25-1.95-9.45,9.01-19.73,24.48-22.97,15.46-3.23,29.57,1.8,31.51,11.25Zm-.5.93l-2.31,4.74-3.39,4.44-4.23,3.39-4.69,2.12-3.36,1.29-6.18,1.72-5.13,1.52-9.8,2.75m38.04-25.7l-1.67,4.68-2.32,3.85-2.69,3.56-3.88,3.3-2.91,1.3-5.44,1.89-7.92,2.59-13.39,4.12m38.26-28.53l-1.33,4.56-1.58,3.72-2.87,4.38-3.3,3.18-3.4,1.94-4.04,1.79-4.04,1.74-19.67,6.7m37.47-30.32l-.93,4.63-1.1,2.9-2.65,4.71-2.84,3.54-3.79,3.06-4.37,1.94-4.08,1.82-19.22,7.2m35.98-31.13l-1.26,4.53-.78,3.01-2.65,4.71-2.84,3.55-3.38,2.84-4.07,2.2-4.23,1.82-18.06,7.96M126.76,10.27l-.77,4.11-.93,3.3-2.1,4.74-2.56,4-3.27,2.96-3.69,2.15-4,1.9-16.93,8.41m30.16-32.17l-.55,3.36-.71,3.42-1.76,5.12-2.29,3.39-3.71,3.92-3.45,2.14-3.97,1.96-14.83,8.27m27.25-31.84l-.55,3.36-.71,3.42-1.48,4.72-2.56,3.8-3.38,3.72-3.58,2.65-4.07,2.33-11.81,7.29m23.86-31.3l-.56,3.38-.71,3.43-1.49,4.73-2.04,3.66-3.46,3.85-3.63,2.37-4.22,3.02-8.58,6.37m20.24-29.97l-.55,3.6-1,4.8-1.71,3.92-2.2,3.24-3,3.03-3.36,2.98-2.68,2.26-6.6,5.41m16.31-28.22l-.38,3.55-1.18,5.13-1.73,3.98-2.21,3.3-3.02,3.08-2.74,3.03-2.43,2.71-3.34,2.83m12.79-26.14l-.67,2.85-1.28,3.64-1.73,4.23-1.29,2.64-1.52,2.68-2.33,3.13-2.13,2.43-3.08,3.43m9.44-22.84l-.86,3.42-1.47,3.57-1.55,4.22-2.96,4.94-1.65,2.56-1.64,2.97m5.73-18.77l-.88,4.46-.7,1.81-1.15,3.1-1.12,2.5-2.69,5.48m23.44-.21c-.04.75-1.46,1.29-3.19,1.22-1.73-.07-3.1-.74-3.07-1.48.03-.75,1.46-1.29,3.18-1.22,1.73.07,3.1.74,3.07,1.49Zm3.92-.1c-.06,1.51-2.79,2.61-6.1,2.47-3.3-.14-5.94-1.47-5.87-2.98.06-1.51,2.8-2.61,6.1-2.47,3.31.14,5.94,1.47,5.87,2.97Zm3.87.16c-.11,2.52-4.29,4.4-9.36,4.19-5.06-.21-9.08-2.43-8.97-4.96.11-2.52,4.3-4.4,9.36-4.18,5.06.21,9.08,2.43,8.97,4.96Zm4.16-1.19c0,2.97-5.48,5.39-12.23,5.38-6.75,0-12.23-2.42-12.23-5.4,0-2.97,5.48-5.38,12.23-5.38,6.76,0,12.23,2.42,12.23,5.39Zm3.99-.35c0,3.71-6.89,6.72-15.39,6.71-8.5,0-15.39-3.02-15.39-6.73,0-3.71,6.89-6.71,15.39-6.71,8.5,0,15.39,3.02,15.39,6.73Zm3.18-.44c0,4.66-8.06,8.45-18.01,8.44-9.95,0-18.01-3.79-18.01-8.46,0-4.66,8.07-8.44,18.02-8.44,9.95,0,18.01,3.79,18.01,8.46Zm3.87-2.74c.35,5.83-8.91,11.12-20.68,11.82-11.77.7-21.59-3.47-21.93-9.3-.34-5.83,8.92-11.12,20.69-11.82,11.77-.7,21.59,3.47,21.93,9.3Zm2.89-3.76c.97,7.28-8.94,14.6-22.13,16.35-13.19,1.75-24.67-2.72-25.63-10-.97-7.28,8.94-14.6,22.13-16.35,13.19-1.76,24.67,2.72,25.64,10Zm4.85-5.2c1.91,9.2-8.86,19.21-24.05,22.36-15.19,3.15-29.04-1.75-30.95-10.95-1.91-9.2,8.85-19.21,24.04-22.36,15.19-3.15,29.04,1.75,30.95,10.95Zm-4.79,49.67l-.45-.19-.57-.24-25.82-11.63-.73-.25h-.58l-.51.13-.5.36-20.78,14.88-.71.59-.09.45.26.54.59.58,27.85,16.98.99.47h.58s.44-.15.44-.15l.36-.21.32-.36.28-.32,18.63-20.44.54-.65-.12-.52Zm-21.04,23.21c-.08,0-.17-.02-.24-.06l-.99-.47-27.9-17.01s-.07-.05-.1-.08l-.59-.57s-.09-.1-.11-.16l-.26-.54c-.05-.11-.07-.24-.04-.35l.09-.45c.03-.12.09-.24.19-.32l.72-.59,20.81-14.9.49-.36c.06-.04.12-.07.19-.09l.51-.13s.1-.02.14-.02h.58c.06,0,.12.01.18.03l.73.25,25.87,11.64,1.01.43c.16.07.29.21.32.39l.12.52c.04.17,0,.35-.12.48l-.54.64-18.65,20.46-.6.68s-.08.08-.14.11l-.36.21s-.08.04-.12.05l-.45.14s-.1.02-.15.02l-.59.02Zm20.31-5.23l2.56-3.28m-19.09,25.08l2.86-3.6m-35.52-20.24l3.26-2.57m13.94-11.12l3.33-2.67m31.04,14.06l-.61.87-.67.88-18.1,23.89-.33.43-.27.36-.36.06h-.12l-.13-.06-.1-.54-.04-.43-.03-.66-2.99-60.73v-3.22l.32-1.4.93-1.09,1.23-.68,14.16-7.99.94-.54.63-.2.23.54.2.6,4.39,37.42.27,3.49.34,3.36.07,1.81.13,1.81.11,1.14-.17.88Z"/>
      </g>
      <polygon class="cls-1" points="87.29 44.52 112.37 55.07 112.37 54.55 87.29 44.01 87.29 44.52"/>
      <polygon class="cls-7" points="87.29 44.52 112.37 55.07 112.37 54.55 87.29 44.01 87.29 44.52"/>
      <polygon class="cls-1" points="192.15 26.21 216.14 34.71 216.14 34.3 192.15 25.81 192.15 26.21"/>
      <polygon class="cls-7" points="192.15 26.21 216.14 34.71 216.14 34.3 192.15 25.81 192.15 26.21"/>
      <g class="cls-4">
        <path class="cls-7" d="m223.88,12.46c1.96,9.53-9.1,19.91-24.7,23.17-15.6,3.27-29.84-1.81-31.79-11.35-1.96-9.53,9.1-19.91,24.7-23.17,15.6-3.27,29.83,1.82,31.79,11.35Zm-.51.93l-2.34,4.78-3.42,4.47-4.27,3.43-4.73,2.13-3.38,1.3-6.24,1.74-5.18,1.53-9.89,2.78m38.39-25.93l-1.69,4.72-2.34,3.88-2.71,3.59-3.92,3.33-2.94,1.31-5.49,1.91-7.99,2.61-13.51,4.16m38.61-28.79l-1.34,4.6-1.59,3.76-2.9,4.41-3.33,3.21-3.43,1.96-4.08,1.81-4.08,1.76-19.85,6.76m37.8-30.59l-.94,4.67-1.11,2.92-2.68,4.75-2.87,3.58-3.83,3.09-4.41,1.96-4.11,1.84-19.4,7.26M214.51,2.69l-1.27,4.57-.79,3.04-2.67,4.75-2.86,3.58-3.41,2.87-4.1,2.22-4.27,1.84-18.22,8.03M210.51,1.28l-.78,4.15-.95,3.33-2.11,4.78-2.59,4.04-3.3,2.99-3.73,2.17-4.03,1.92-17.08,8.49M206.38.69l-.56,3.39-.72,3.45-1.78,5.17-2.31,3.42-3.74,3.95-3.48,2.16-4,1.97-14.97,8.34M202.32.44l-.56,3.39-.72,3.45-1.5,4.76-2.59,3.83-3.41,3.75-3.61,2.68-4.11,2.35-11.92,7.36M197.99.44l-.56,3.4-.72,3.46-1.51,4.77-2.05,3.7-3.49,3.88-3.66,2.39-4.25,3.04-8.66,6.43M193.49,1.28l-.56,3.63-1.01,4.84-1.73,3.95-2.22,3.27-3.02,3.06-3.39,3.01-2.71,2.28-6.65,5.46m16.46-28.47l-.38,3.58-1.19,5.17-1.74,4.02-2.23,3.33-3.05,3.1-2.76,3.06-2.45,2.73-3.37,2.86m12.91-26.38l-.68,2.88-1.29,3.67-1.75,4.27-1.3,2.66-1.54,2.7-2.35,3.17-2.15,2.45-3.11,3.46m9.53-23.04l-.87,3.45-1.48,3.61-1.56,4.26-2.98,4.98-1.66,2.59-1.66,3m5.79-18.94l-.89,4.5-.7,1.83-1.16,3.13-1.13,2.53-2.72,5.53m23.65-.21c-.03.75-1.47,1.3-3.22,1.23-1.74-.07-3.13-.74-3.1-1.5.03-.75,1.47-1.3,3.21-1.23,1.74.07,3.13.75,3.1,1.5Zm3.96-.1c-.06,1.52-2.82,2.64-6.16,2.49-3.34-.14-5.99-1.49-5.93-3,.06-1.52,2.82-2.63,6.16-2.49,3.34.14,5.99,1.48,5.93,3Zm3.91.16c-.11,2.55-4.34,4.44-9.45,4.22-5.11-.22-9.16-2.46-9.05-5,.11-2.55,4.34-4.44,9.45-4.23,5.11.21,9.16,2.46,9.05,5Zm4.2-1.2c0,3-5.53,5.43-12.34,5.43-6.82,0-12.34-2.44-12.34-5.44,0-3,5.53-5.43,12.34-5.43,6.82,0,12.34,2.44,12.34,5.44Zm4.02-.35c0,3.74-6.95,6.78-15.53,6.77-8.58,0-15.53-3.04-15.53-6.79,0-3.75,6.96-6.78,15.53-6.78,8.58,0,15.52,3.04,15.52,6.79Zm3.21-.44c0,4.71-8.14,8.52-18.18,8.52-10.04,0-18.17-3.83-18.17-8.53,0-4.71,8.14-8.52,18.18-8.52,10.04,0,18.17,3.82,18.17,8.53Zm3.91-2.77c.35,5.88-9,11.22-20.87,11.93-11.88.7-21.78-3.5-22.13-9.39-.35-5.88,9-11.22,20.87-11.92,11.88-.7,21.78,3.5,22.13,9.39Zm2.92-3.79c.97,7.34-9.02,14.73-22.33,16.5-13.31,1.77-24.89-2.75-25.87-10.09-.98-7.34,9.02-14.73,22.33-16.5,13.31-1.77,24.89,2.75,25.87,10.09Zm4.89-5.25c1.93,9.28-8.94,19.38-24.26,22.56-15.32,3.18-29.31-1.77-31.23-11.05-1.93-9.28,8.93-19.38,24.26-22.56,15.32-3.18,29.31,1.77,31.23,11.05Zm-4.83,49.73l-.45-.19-.57-.24-25.9-11.73-.73-.25h-.58l-.5.13-.5.37-20.84,15.01-.72.59-.09.45.26.54.6.58,27.93,17.13.99.47.58-.02.45-.14.36-.21.32-.37.28-.32,18.69-20.62.54-.65-.12-.53Zm-21.11,23.42c-.08,0-.17-.02-.24-.05l-.99-.47-27.98-17.16s-.07-.05-.1-.08l-.6-.58s-.09-.1-.11-.16l-.26-.54c-.05-.11-.07-.24-.04-.36l.09-.45c.03-.13.1-.24.19-.32l.72-.6,20.87-15.03.49-.36c.06-.04.12-.07.19-.09l.51-.13s.09-.02.14-.02h.58c.07,0,.13.01.19.03l.73.25,25.95,11.75,1.01.43c.17.07.29.22.33.39l.12.53c.04.17,0,.35-.11.48l-.54.65-18.7,20.64-.6.69s-.09.08-.14.11l-.36.21s-.08.04-.12.05l-.45.14s-.1.02-.15.03l-.59.02Zm20.57,1.09l2.3-3.39m-18.06,26.07l2.66-3.8m-37.75-16.4l3.1-2.68m15.84-14.37l3.15-2.81m31.37,12.2l-.62.98-.69.97-18.57,26.72-.34.48-.28.4-.37.07h-.12l-.14-.07-.1-.61-.04-.49-.03-.73-3.06-67.9v-3.6l.32-1.57.95-1.22,1.26-.76,14.53-8.93.96-.6.64-.22.24.6.2.67,4.5,41.85.27,3.91.35,3.76.07,2.03.14,2.03.11,1.27-.18.98Zm-20.99,30.18c-.09,0-.18-.02-.26-.06l-.14-.07c-.16-.08-.27-.23-.3-.41l-.1-.61-.05-.52-.03-.77-3.07-67.89v-3.63s0-.08.01-.11l.32-1.57c.02-.08.06-.16.11-.23l.95-1.22c.04-.05.09-.1.15-.14l1.26-.76,14.52-8.93.96-.6s.07-.04.12-.05l.64-.22c.06-.02.12-.03.18-.03.23,0,.44.14.53.36l.23.6.22.71,4.52,41.95.28,3.93.34,3.74.07,2.06.13,2.01.11,1.26s0,.1,0,.15l-.18.98c-.01.07-.04.14-.08.2l-.62.98-.7,1-18.56,26.71-.62.88c-.08.12-.21.2-.36.23l-.37.07s-.07,0-.11,0h-.12Zm-9.76-44.32l-.6.83-.44.53-21.97,19.81-.75.65-.77.73-.42.25-.4-.1-.12-.17-.1-.35.02-.3.07-1.2.14-1.17.13-1.04,1.66-14.8,4.51-41.6.54-1.15.51-1.11,1.36-1.22,1.07-.65,16.18-8.3.49-.16.47-.12.37.29v2.64l-1.73,45.47-.02.97-.02.63-.15.67Zm-24.95,23.36s-.09,0-.14-.02l-.4-.1c-.14-.03-.25-.11-.33-.23l-.12-.17c-.04-.05-.06-.11-.08-.17l-.1-.35c-.01-.06-.02-.12-.02-.18l.09-1.5.13-1.2.13-1.04,1.66-14.8,4.51-41.6c0-.06.02-.12.04-.18l.54-1.15.51-1.11c.03-.07.08-.13.14-.19l1.36-1.22,1.16-.72,16.21-8.32.57-.19.5-.13s.1-.02.14-.02c.12,0,.24.04.34.12l.37.29c.14.11.22.27.22.45v2.64l-1.73,45.49-.02.96-.03.64-.16.77c-.01.08-.05.14-.09.21l-.6.83-.47.56-22.02,19.87-.76.66-.75.72s-.06.05-.1.08l-.42.25c-.09.05-.18.08-.28.08Z"/>
      </g>
      <polygon class="cls-1" points="170.23 35.56 195.8 46.36 195.8 45.83 170.33 35.14 170.23 35.56"/>
      <polygon class="cls-7" points="170.23 35.56 195.8 46.36 195.8 45.83 170.33 35.14 170.23 35.56"/>
      <g class="cls-9">
        <path class="cls-1" d="m45.24,50.76c.33,5.67-8.68,10.82-20.12,11.5-11.45.68-21-3.38-21.34-9.05-.34-5.67,8.67-10.82,20.12-11.49,11.45-.68,21,3.37,21.34,9.05"/>
        <path class="cls-7" d="m45.24,50.76c.33,5.67-8.68,10.82-20.12,11.5-11.45.68-21-3.38-21.34-9.05-.34-5.67,8.67-10.82,20.12-11.49,11.45-.68,21,3.37,21.34,9.05Z"/>
        <path class="cls-7" d="m45.38,50.38c.3,4.88-8.8,9.36-20.33,10.01-11.53.65-21.12-2.77-21.42-7.65"/>
        <path class="cls-1" d="m131.52,31.09c.37,6.23-9.53,11.88-22.1,12.62-12.57.74-23.06-3.7-23.43-9.93-.37-6.23,9.53-11.88,22.1-12.62,12.57-.74,23.06,3.7,23.43,9.93"/>
        <path class="cls-7" d="m131.52,31.09c.37,6.23-9.53,11.88-22.1,12.62-12.57.74-23.06-3.7-23.43-9.93-.37-6.23,9.53-11.88,22.1-12.62,12.57-.74,23.06,3.7,23.43,9.93Z"/>
        <path class="cls-7" d="m131.67,30.67c.33,5.35-9.66,10.27-22.32,10.99-12.65.72-23.18-3.04-23.51-8.4"/>
        <path class="cls-1" d="m215.37,22.51c.37,6.23-9.53,11.88-22.1,12.62-12.57.74-23.06-3.7-23.43-9.93-.37-6.23,9.52-11.88,22.09-12.62,12.57-.74,23.06,3.7,23.43,9.93"/>
        <path class="cls-7" d="m215.37,22.51c.37,6.23-9.53,11.88-22.1,12.62-12.57.74-23.06-3.7-23.43-9.93-.37-6.23,9.52-11.88,22.09-12.62,12.57-.74,23.06,3.7,23.43,9.93Z"/>
        <path class="cls-7" d="m215.52,22.09c.33,5.35-9.66,10.27-22.32,10.99-12.65.72-23.18-3.04-23.51-8.4"/>
      </g>
    </g>
  </g>
</svg>