<?xml version="1.0" encoding="UTF-8"?>
<svg id="Layer_2" data-name="Layer 2" xmlns="http://www.w3.org/2000/svg" xmlns:xlink="http://www.w3.org/1999/xlink" viewBox="0 0 80.31 65.17">
  <defs>
    <style>
      .cls-1 {
        clip-path: url(#clippath-11);
      }

      .cls-2 {
        clip-path: url(#clippath-16);
      }

      .cls-3 {
        fill: #fff;
      }

      .cls-4 {
        clip-path: url(#clippath-2);
      }

      .cls-5 {
        clip-path: url(#clippath-13);
      }

      .cls-6 {
        clip-path: url(#clippath-15);
      }

      .cls-7 {
        clip-path: url(#clippath-6);
      }

      .cls-8 {
        clip-path: url(#clippath-7);
      }

      .cls-9 {
        clip-path: url(#clippath-1);
      }

      .cls-10 {
        clip-path: url(#clippath-4);
      }

      .cls-11 {
        clip-path: url(#clippath-12);
      }

      .cls-12 {
        stroke-linecap: round;
        stroke-linejoin: round;
      }

      .cls-12, .cls-13, .cls-14 {
        fill: none;
      }

      .cls-12, .cls-14 {
        stroke: #000;
        stroke-width: .25px;
      }

      .cls-15 {
        clip-path: url(#clippath-9);
      }

      .cls-16 {
        clip-path: url(#clippath);
      }

      .cls-17 {
        clip-path: url(#clippath-3);
      }

      .cls-18 {
        clip-path: url(#clippath-8);
      }

      .cls-14 {
        stroke-miterlimit: 10;
      }

      .cls-19 {
        clip-path: url(#clippath-14);
      }

      .cls-20 {
        clip-path: url(#clippath-17);
      }

      .cls-21 {
        clip-path: url(#clippath-5);
      }

      .cls-22 {
        clip-path: url(#clippath-10);
      }
    </style>
    <clipPath id="clippath">
      <rect class="cls-13" width="80.31" height="65.17"/>
    </clipPath>
    <clipPath id="clippath-1">
      <rect class="cls-13" width="80.31" height="65.17"/>
    </clipPath>
    <clipPath id="clippath-2">
      <rect class="cls-13" width="80.31" height="65.17"/>
    </clipPath>
    <clipPath id="clippath-3">
      <rect class="cls-13" width="80.31" height="65.17"/>
    </clipPath>
    <clipPath id="clippath-4">
      <rect class="cls-13" width="80.31" height="65.17"/>
    </clipPath>
    <clipPath id="clippath-5">
      <rect class="cls-13" width="80.31" height="65.17"/>
    </clipPath>
    <clipPath id="clippath-6">
      <rect class="cls-13" width="80.31" height="65.17"/>
    </clipPath>
    <clipPath id="clippath-7">
      <rect class="cls-13" width="80.31" height="65.17"/>
    </clipPath>
    <clipPath id="clippath-8">
      <rect class="cls-13" width="80.31" height="65.17"/>
    </clipPath>
    <clipPath id="clippath-9">
      <rect class="cls-13" width="80.31" height="65.17"/>
    </clipPath>
    <clipPath id="clippath-10">
      <rect class="cls-13" width="80.31" height="65.17"/>
    </clipPath>
    <clipPath id="clippath-11">
      <rect class="cls-13" width="80.31" height="65.17"/>
    </clipPath>
    <clipPath id="clippath-12">
      <rect class="cls-13" width="80.31" height="65.17"/>
    </clipPath>
    <clipPath id="clippath-13">
      <rect class="cls-13" width="80.31" height="65.17"/>
    </clipPath>
    <clipPath id="clippath-14">
      <rect class="cls-13" width="80.31" height="65.17"/>
    </clipPath>
    <clipPath id="clippath-15">
      <rect class="cls-13" width="80.31" height="65.17"/>
    </clipPath>
    <clipPath id="clippath-16">
      <rect class="cls-13" width="80.31" height="65.17"/>
    </clipPath>
    <clipPath id="clippath-17">
      <rect class="cls-13" width="80.31" height="65.17"/>
    </clipPath>
  </defs>
  <g id="Layer_1-2" data-name="Layer 1">
    <g>
      <g class="cls-16">
        <path class="cls-12" d="m72.96,20.21c-.06.1-.15.19-.26.24m-.67-1.5c.37-.12.78.05.94.42m-24.62,11.88l-.05.07-.14.13-.17.07-.19.02-.19-.05-.18-.1-.16-.15-.12-.19-.08-.21-.02-.22m0,0l.02-.21.08-.19.12-.15.16-.1.18-.05.19.02.19.07.17.12.14.17.05.09M7.24,24.68l.02-.21.08-.19.12-.15.16-.1.18-.04h.2s.19.09.19.09l.17.13.14.17.1.2.05.21v.22l-.05.2-.1.17-.14.13-.17.07-.19.02-.2-.04-.18-.1-.16-.15-.12-.19-.08-.21-.02-.22Zm65.04,29.38s-.02-.02-.02-.02c0,0-.01,0-.02,0,0,0,0,0,0,0m.5,1.43c.02.1-.02.2-.1.23m-4.03-.03l3.63-1.63m-3.63,1.63s0,0,0,0c0,0-.01.01-.02.02-.01.01-.02.02-.02.04m0,0s.04.09.04.13c.03.09.04.19.04.29m-.07.34c-.07.21-.22.37-.39.44m.46-.78c0,.05,0,.11-.02.16-.01.06-.03.12-.05.18m-13.03,5.07s-.01-.01-.02-.02c0,0-.01,0-.02,0,0,0,0,0,0,0m.5,1.42c.02.1-.02.2-.1.24m-4.03-.03l3.63-1.63m-3.63,1.63s0,0,0,0c0,0-.01.01-.02.02,0,.01-.01.02-.02.04m0,0s.03.09.05.13c.02.09.03.19.04.29m-.07.34c-.07.2-.21.36-.39.44m.46-.78c0,.05,0,.1-.02.16-.01.06-.03.12-.05.18m-22.19-16.31s-.01-.01-.02-.02c0,0-.01,0-.02,0,0,0,0,0,0,0m.5,1.42c.02.11-.02.2-.1.24m-4.03-.03l3.63-1.62m-3.63,1.62s0,0,0,0c0,0-.01.01-.02.02,0,0-.02.02-.02.04m0,0s.04.09.05.13c.02.09.03.19.04.29m-.07.34c-.07.21-.21.37-.39.45m.46-.78c0,.06,0,.11-.02.16,0,.06-.03.12-.05.18m-13.03,5.08s-.01-.01-.02-.02c0,0,0,0-.02,0,0,0,0,0,0,0m.5,1.42c.02.11-.02.2-.1.23m-4.03-.03l3.63-1.63m-3.63,1.63s0,0,0,0c0,0-.01.01-.02.02,0,.01-.01.03-.02.04m0,0s.03.08.05.13c.03.09.03.19.04.29m-.07.34c-.07.2-.21.36-.39.44m.46-.78c0,.05,0,.11-.02.16-.01.06-.03.12-.05.18m39.16-26.25l-.26.12m24.62-11.04l-22.71,10.18m0-1.8l22.04-9.88m-24.62,11.04l.94-.42m-27.02-9.88l-13.04,5.85m-.67-1.5l10.7-4.8m13.65,26.32c0,.06,0,.13,0,.19,0,.11-.01.23-.03.35-.02.12-.04.23-.06.35-.02.11-.06.23-.09.33-.04.11-.08.22-.12.33-.04.11-.09.21-.15.3-.06.1-.11.2-.18.29-.06.08-.12.16-.19.23-.06.07-.14.13-.21.18-.07.05-.14.1-.22.14-.02,0-.04.01-.05.02m-.69-1.48s.01-.02.03-.04c.02-.02.03-.04.05-.08.02-.03.04-.07.06-.11.03-.05.05-.1.07-.16.02-.06.04-.13.06-.19.02-.07.03-.14.05-.21.01-.07.02-.15.03-.22,0-.07,0-.14.01-.21m0,0v-24.53m1.64.25v24.28m40.64,7.59s.02-.02.03-.04c.02-.02.04-.04.06-.07.02-.03.04-.07.06-.12.02-.05.04-.1.07-.15.02-.06.04-.13.06-.19.02-.07.03-.14.04-.21.02-.08.02-.15.03-.23,0-.07,0-.14,0-.2m1.64,0c0,.06,0,.12,0,.19,0,.11-.02.23-.03.35-.02.11-.04.23-.06.35-.03.11-.06.22-.09.33-.04.11-.07.22-.12.33-.04.11-.09.21-.14.3-.06.1-.12.2-.18.28-.06.08-.12.16-.19.23-.07.07-.13.13-.21.18-.07.05-.14.1-.22.14-.02,0-.03.02-.05.03m1.31-41v38.3m-1.64,0V14.37M7.38,56.91l22.61-10.14m-21.19,11.3l-1.11.5m17.85-8l-12.3,5.52m17.42-7.81l-.68.3m-22.63,8.03s0,.07,0,.1c0,.07.01.13.02.18,0,.05.02.1.03.14,0,.03.02.06.03.08s.02.04.02.04c0,0,0,0,0,0m.24,1.42c-.06.03-.13.05-.2.07-.08.02-.16.04-.23.04-.09,0-.18,0-.26-.01-.08-.01-.16-.03-.24-.06-.07-.02-.15-.06-.22-.1-.07-.04-.13-.09-.19-.15-.06-.05-.12-.11-.17-.18-.05-.07-.1-.14-.14-.21-.05-.08-.09-.17-.12-.25-.04-.09-.07-.19-.1-.29-.03-.11-.05-.22-.07-.33-.01-.11-.03-.22-.03-.34,0-.05,0-.1,0-.15m0,0V18.24m1.64,6.89v31.48m0-38.36v6.04m.48-6.6s-.03,0-.05,0c-.04,0-.08,0-.11.01-.04,0-.07.02-.1.04-.03.02-.06.04-.08.07-.02.02-.04.06-.06.1-.02.04-.04.08-.05.12-.01.05-.02.11-.03.17v.05m-1.64,0c0-.07,0-.14.01-.22,0-.12.03-.23.05-.35.03-.11.06-.23.1-.33.04-.11.1-.2.15-.3m43.99,46.24l22.62-10.14m-21.19,11.3l-1.11.5m17.85-8l-12.3,5.52m17.42-7.81l-.68.3m-22.29,9.99c-.07.02-.13.05-.2.07-.08.02-.16.03-.24.04-.09,0-.17,0-.26,0-.08-.01-.16-.03-.24-.06-.08-.03-.15-.06-.22-.11-.07-.04-.13-.09-.19-.14-.06-.06-.12-.12-.17-.18-.06-.07-.1-.14-.15-.21-.05-.08-.09-.16-.12-.25-.04-.09-.07-.19-.1-.29-.02-.1-.04-.21-.06-.33-.02-.11-.02-.22-.03-.34,0-.05,0-.1,0-.15m1.64,0s0,.07,0,.1c0,.07.01.13.02.18,0,.05.02.1.03.14,0,.03.02.06.03.08.01.02.02.04.02.04,0,0,0,0,0,0m-2.46-39.9L7.83,17.67m42.16,6.93v38.36m-1.64,0V24.61m0,0s0-.05,0-.08c0-.06-.02-.13-.03-.19-.02-.06-.04-.12-.07-.18-.03-.06-.06-.12-.1-.17-.04-.05-.08-.1-.12-.14-.04-.04-.09-.08-.13-.11-.05-.03-.09-.06-.13-.07-.05-.02-.09-.03-.13-.03m1.64-.86c.07.08.14.16.2.24.07.1.13.2.19.3.06.11.11.22.15.33.04.11.08.23.11.35.03.12.05.24.06.36,0,.09.01.18.02.27m22.76,30.82s0,.06,0,.09c0,.03,0,.05-.02.08-.01.03-.02.05-.04.07-.02.01-.04.02-.06.04m-.15-1.24l.27.98m-.48-1.37s.03.04.05.06c.04.06.08.12.11.19.02.05.04.09.05.14m-3.88,3.01l-1.2-.18m5.23-1.59l-3.91,1.75m0,0s-.02.01-.04.02c-.02.01-.05,0-.08,0m-12.59,5.47s.01.06,0,.09c0,.03-.01.05-.02.08-.01.02-.03.04-.05.07-.01.01-.04.02-.05.04m-.16-1.24l.27.97m-.48-1.37s.04.04.05.06c.04.06.08.12.11.19.02.05.04.09.05.14m.15,1.25l-3.91,1.75m-21.88-15.9s.01.06,0,.09c0,.03,0,.06-.02.08,0,.02-.03.05-.04.07-.02.01-.04.03-.06.04m-.15-1.24l.27.98m-.47-1.37s.03.04.05.06c.04.06.08.12.11.19.02.05.03.1.05.14m-3.88,3.02l-1.21-.18m5.24-1.59l-3.9,1.75m0,0s-.03.01-.04.02c-.03,0-.06,0-.09,0m-12.59,5.47s.01.06,0,.08c0,.02-.01.05-.02.08-.01.02-.03.05-.05.07-.02.01-.04.03-.06.04m-.15-1.24l.27.98m-.47-1.37s.03.04.05.06c.04.06.08.12.11.19.02.05.03.1.05.15m-3.88,3.01l-1.21-.18m5.24-1.59l-3.9,1.75m0,0s-.02.02-.04.02c-.03,0-.06,0-.09,0"/>
        <path class="cls-12" d="m9.47,58.33c-.07,0-.14.01-.22.02"/>
      </g>
      <line class="cls-12" x1="9.47" y1="58.33" x2="9.39" y2="57.27"/>
      <g class="cls-9">
        <path class="cls-12" d="m9.39,57.27s-.08,0-.13.01"/>
      </g>
      <line class="cls-12" x1="9.19" y1="57.62" x2="9.25" y2="58.35"/>
      <g class="cls-4">
        <path class="cls-12" d="m9.22,56.8c.09.14.15.31.16.47"/>
      </g>
      <line class="cls-12" x1="9.47" y1="58.33" x2="13.35" y2="56.59"/>
      <line class="cls-12" x1="13.08" y1="55.61" x2="13.35" y2="56.59"/>
      <line class="cls-12" x1="9.39" y1="57.27" x2="13.08" y2="55.61"/>
      <line class="cls-12" x1="9.17" y1="58.44" x2="8.26" y2="58.3"/>
      <g class="cls-17">
        <path class="cls-12" d="m9.25,58.35s-.02.09-.07.09c0,0,0,0-.01,0"/>
        <path class="cls-12" d="m9.47,58.33c.02.11-.03.21-.12.24"/>
      </g>
      <polyline class="cls-12" points="9.22 58.6 9.21 58.59 9.2 58.58 9.18 58.56 9.18 58.54 9.17 58.51 9.16 58.48 9.16 58.44"/>
      <g class="cls-10">
        <path class="cls-12" d="m12.85,55.17c.11.13.19.28.23.44"/>
        <path class="cls-12" d="m13.1,55.58s0,.03-.02.03"/>
      </g>
      <polyline class="cls-12" points="13.35 56.59 13.37 56.58 13.37 56.57 13.37 56.56"/>
      <g class="cls-21">
        <path class="cls-12" d="m26.21,50.83c-.07,0-.15.01-.22.02"/>
      </g>
      <line class="cls-12" x1="26.21" y1="50.83" x2="26.13" y2="49.77"/>
      <g class="cls-7">
        <path class="cls-12" d="m26.13,49.77s-.09,0-.13,0"/>
      </g>
      <line class="cls-12" x1="25.93" y1="50.12" x2="25.99" y2="50.85"/>
      <g class="cls-8">
        <path class="cls-12" d="m25.96,49.29c.09.14.14.3.16.48"/>
      </g>
      <line class="cls-12" x1="26.21" y1="50.83" x2="30.09" y2="49.09"/>
      <line class="cls-12" x1="29.82" y1="48.11" x2="30.09" y2="49.09"/>
      <line class="cls-12" x1="26.13" y1="49.77" x2="29.82" y2="48.11"/>
      <line class="cls-12" x1="25.91" y1="50.93" x2="25" y2="50.8"/>
      <g class="cls-18">
        <path class="cls-12" d="m25.99,50.85s-.03.09-.06.09h-.01"/>
        <path class="cls-12" d="m26.21,50.83c.01.11-.03.21-.12.24"/>
      </g>
      <polyline class="cls-12" points="25.96 51.09 25.95 51.09 25.94 51.08 25.92 51.06 25.91 51.03 25.91 51.01 25.9 50.97 25.91 50.94"/>
      <g class="cls-15">
        <path class="cls-12" d="m29.59,47.67c.11.13.19.28.23.44"/>
        <path class="cls-12" d="m29.84,48.08s0,.03-.02.04"/>
      </g>
      <polyline class="cls-12" points="30.09 49.09 30.11 49.08 30.11 49.07 30.11 49.05"/>
      <line class="cls-12" x1="52.1" y1="64.71" x2="52.03" y2="63.64"/>
      <line class="cls-12" x1="52.03" y1="63.64" x2="51.9" y2="63.66"/>
      <line class="cls-12" x1="51.83" y1="63.99" x2="51.89" y2="64.72"/>
      <g class="cls-22">
        <path class="cls-12" d="m51.86,63.17c.09.14.15.31.16.48"/>
      </g>
      <line class="cls-12" x1="52.1" y1="64.71" x2="55.99" y2="62.96"/>
      <line class="cls-12" x1="55.72" y1="61.99" x2="55.99" y2="62.96"/>
      <line class="cls-12" x1="52.03" y1="63.64" x2="55.72" y2="61.99"/>
      <g class="cls-1">
        <path class="cls-12" d="m55.49,61.54c.11.13.19.28.23.44"/>
        <path class="cls-12" d="m55.74,61.95s-.01.03-.02.03"/>
      </g>
      <polyline class="cls-12" points="55.99 62.96 56.01 62.95 56.01 62.94 56.01 62.93"/>
      <g class="cls-11">
        <path class="cls-12" d="m68.85,57.2c-.07,0-.15.01-.22.02"/>
      </g>
      <line class="cls-12" x1="68.85" y1="57.2" x2="68.77" y2="56.14"/>
      <g class="cls-5">
        <path class="cls-12" d="m68.77,56.14s-.09,0-.13.01"/>
      </g>
      <line class="cls-12" x1="68.57" y1="56.49" x2="68.62" y2="57.22"/>
      <g class="cls-19">
        <path class="cls-12" d="m68.6,55.66c.09.14.15.31.16.48"/>
      </g>
      <line class="cls-12" x1="68.85" y1="57.2" x2="72.73" y2="55.46"/>
      <line class="cls-12" x1="72.46" y1="54.48" x2="72.73" y2="55.46"/>
      <line class="cls-12" x1="68.77" y1="56.14" x2="72.46" y2="54.48"/>
      <line class="cls-12" x1="68.55" y1="57.31" x2="67.64" y2="57.17"/>
      <g class="cls-6">
        <path class="cls-12" d="m68.62,57.22s-.03.09-.06.09c0,0-.01,0-.02,0"/>
        <path class="cls-12" d="m68.85,57.2c.01.1-.04.21-.12.24"/>
      </g>
      <polyline class="cls-12" points="68.6 57.46 68.59 57.46 68.58 57.45 68.56 57.43 68.55 57.41 68.55 57.37 68.54 57.34 68.55 57.31"/>
      <g class="cls-2">
        <path class="cls-12" d="m72.23,54.04c.11.13.19.29.23.45"/>
        <path class="cls-12" d="m72.48,54.45s0,.03-.02.04"/>
      </g>
      <polyline class="cls-12" points="72.73 55.46 72.75 55.45 72.75 55.44 72.75 55.43"/>
      <polyline class="cls-12" points="7.83 17.67 7.79 17.66 7.69 17.6 7.61 17.47 7.56 17.31"/>
      <polyline class="cls-12" points="74.61 51.93 74.58 51.99 74.5 52.04"/>
      <g class="cls-20">
        <path class="cls-3" d="m7.56,17.31l34.11,5.1h0c.06,0,.12.02.19.03.21.03.43.06.65.09.22.03.43.05.65.07.21.02.43.04.65.06.21.02.42.03.63.05.21.01.41.03.61.04.19,0,.38.02.58.03.19,0,.37.01.56.02.11,0,.22,0,.34,0,.28,0,.56,0,.83,0,.16,0,.32,0,.48,0,.17,0,.35,0,.52-.01.15,0,.31,0,.46-.01.2,0,.4-.01.6-.02.23-.01.46-.02.68-.04.24-.02.47-.03.71-.05.24-.02.48-.04.72-.07.24-.03.48-.05.72-.08.24-.03.48-.06.71-.1.23-.03.47-.07.7-.11.23-.04.46-.08.69-.13.23-.05.45-.09.67-.14.22-.05.44-.1.65-.16.22-.06.42-.11.63-.18.21-.06.41-.13.6-.19.2-.07.39-.14.57-.21.15-.06.3-.13.45-.19h0s19.69-8.83,19.69-8.83h0s.05-.02.08-.03c.17-.07.33-.16.48-.24.15-.08.29-.16.43-.25.15-.09.28-.18.41-.28.12-.09.24-.19.34-.29.1-.09.2-.19.28-.29.08-.09.15-.19.22-.29.06-.1.12-.19.16-.29.04-.1.08-.19.11-.29.03-.1.04-.19.05-.29,0-.1,0-.19,0-.29,0-.1-.02-.19-.05-.29-.03-.1-.06-.19-.1-.29-.04-.1-.1-.19-.16-.28-.06-.1-.13-.19-.2-.28-.08-.1-.17-.19-.26-.28-.1-.09-.2-.18-.32-.27-.11-.09-.23-.18-.36-.26-.13-.09-.27-.17-.41-.25-.15-.08-.3-.16-.46-.24-.16-.08-.33-.15-.5-.22-.17-.07-.35-.14-.53-.21-.18-.07-.37-.13-.56-.19-.19-.06-.39-.12-.58-.17-.2-.06-.4-.11-.6-.16-.2-.05-.41-.1-.62-.14-.21-.04-.42-.09-.63-.13-.21-.04-.42-.08-.64-.11-.15-.02-.3-.05-.46-.07h0S38.64.52,38.64.52h0c-.06,0-.12-.02-.19-.03-.21-.03-.43-.06-.65-.09-.21-.03-.43-.05-.65-.08-.22-.02-.43-.04-.64-.06-.21-.02-.42-.03-.64-.05-.2-.01-.41-.03-.61-.04-.19,0-.39-.02-.58-.03-.18,0-.37-.01-.56-.02-.12,0-.23,0-.34,0-.27,0-.56,0-.83,0-.16,0-.32,0-.48,0-.18,0-.35,0-.53.01-.15,0-.31,0-.46.01-.2,0-.4.01-.6.02-.23,0-.45.02-.68.04-.24.01-.47.03-.71.05-.24.02-.48.04-.72.07-.24.02-.48.05-.72.08-.24.03-.48.06-.71.1-.24.03-.47.07-.7.11-.23.04-.46.08-.69.13-.23.05-.45.09-.67.14-.22.05-.44.1-.65.16-.22.06-.43.12-.63.18-.21.06-.41.12-.6.19-.19.07-.38.13-.57.21-.15.06-.3.13-.45.19h0S2.69,10.65,2.69,10.65h0s-.05.02-.07.03c-.17.07-.33.15-.48.24-.15.08-.29.16-.43.25-.14.09-.28.19-.41.28-.12.09-.24.19-.35.28-.1.09-.19.19-.28.29-.08.09-.15.19-.22.29-.06.1-.12.19-.16.29-.04.1-.08.19-.11.29-.02.1-.04.19-.06.29,0,.1,0,.2,0,.29,0,.1.03.19.05.29.02.1.06.19.1.29.04.1.09.19.15.28.06.1.13.19.21.28.08.09.16.19.26.27.1.09.2.18.31.27.11.09.24.18.36.26.13.09.27.17.41.25.15.08.3.16.46.24.16.08.32.15.5.22.17.07.35.14.53.21.18.07.37.13.56.19.19.06.38.12.58.17.19.06.39.11.6.16.2.05.41.1.62.14.21.05.42.09.63.13.21.04.42.08.64.11.15.02.31.05.46.07"/>
        <path class="cls-12" d="m7.56,17.31l34.11,5.1h0c.06,0,.12.02.19.03.21.03.43.06.65.09.22.03.43.05.65.07.21.02.43.04.65.06.21.02.42.03.63.05.21.01.41.03.61.04.19,0,.38.02.58.03.19,0,.37.01.56.02.11,0,.22,0,.34,0,.28,0,.56,0,.83,0,.16,0,.32,0,.48,0,.17,0,.35,0,.52-.01.15,0,.31,0,.46-.01.2,0,.4-.01.6-.02.23-.01.46-.02.68-.04.24-.02.47-.03.71-.05.24-.02.48-.04.72-.07.24-.03.48-.05.72-.08.24-.03.48-.06.71-.1.23-.03.47-.07.7-.11.23-.04.46-.08.69-.13.23-.05.45-.09.67-.14.22-.05.44-.1.65-.16.22-.06.42-.11.63-.18.21-.06.41-.13.6-.19.2-.07.39-.14.57-.21.15-.06.3-.13.45-.19h0s19.69-8.83,19.69-8.83h0s.05-.02.08-.03c.17-.07.33-.16.48-.24.15-.08.29-.16.43-.25.15-.09.28-.18.41-.28.12-.09.24-.19.34-.29.1-.09.2-.19.28-.29.08-.09.15-.19.22-.29.06-.1.12-.19.16-.29.04-.1.08-.19.11-.29.03-.1.04-.19.05-.29,0-.1,0-.19,0-.29,0-.1-.02-.19-.05-.29-.03-.1-.06-.19-.1-.29-.04-.1-.1-.19-.16-.28-.06-.1-.13-.19-.2-.28-.08-.1-.17-.19-.26-.28-.1-.09-.2-.18-.32-.27-.11-.09-.23-.18-.36-.26-.13-.09-.27-.17-.41-.25-.15-.08-.3-.16-.46-.24-.16-.08-.33-.15-.5-.22-.17-.07-.35-.14-.53-.21-.18-.07-.37-.13-.56-.19-.19-.06-.39-.12-.58-.17-.2-.06-.4-.11-.6-.16-.2-.05-.41-.1-.62-.14-.21-.04-.42-.09-.63-.13-.21-.04-.42-.08-.64-.11-.15-.02-.3-.05-.46-.07h0S38.64.52,38.64.52h0c-.06,0-.12-.02-.19-.03-.21-.03-.43-.06-.65-.09-.21-.03-.43-.05-.65-.08-.22-.02-.43-.04-.64-.06-.21-.02-.42-.03-.64-.05-.2-.01-.41-.03-.61-.04-.19,0-.39-.02-.58-.03-.18,0-.37-.01-.56-.02-.12,0-.23,0-.34,0-.27,0-.56,0-.83,0-.16,0-.32,0-.48,0-.18,0-.35,0-.53.01-.15,0-.31,0-.46.01-.2,0-.4.01-.6.02-.23,0-.45.02-.68.04-.24.01-.47.03-.71.05-.24.02-.48.04-.72.07-.24.02-.48.05-.72.08-.24.03-.48.06-.71.1-.24.03-.47.07-.7.11-.23.04-.46.08-.69.13-.23.05-.45.09-.67.14-.22.05-.44.1-.65.16-.22.06-.43.12-.63.18-.21.06-.41.12-.6.19-.19.07-.38.13-.57.21-.15.06-.3.13-.45.19h0S2.69,10.65,2.69,10.65h0s-.05.02-.07.03c-.17.07-.33.15-.48.24-.15.08-.29.16-.43.25-.14.09-.28.19-.41.28-.12.09-.24.19-.35.28-.1.09-.19.19-.28.29-.08.09-.15.19-.22.29-.06.1-.12.19-.16.29-.04.1-.08.19-.11.29-.02.1-.04.19-.06.29,0,.1,0,.2,0,.29,0,.1.03.19.05.29.02.1.06.19.1.29.04.1.09.19.15.28.06.1.13.19.21.28.08.09.16.19.26.27.1.09.2.18.31.27.11.09.24.18.36.26.13.09.27.17.41.25.15.08.3.16.46.24.16.08.32.15.5.22.17.07.35.14.53.21.18.07.37.13.56.19.19.06.38.12.58.17.19.06.39.11.6.16.2.05.41.1.62.14.21.05.42.09.63.13.21.04.42.08.64.11.15.02.31.05.46.07"/>
        <line class="cls-14" x1="6.79" y1="14.33" x2="41.81" y2="19.8"/>
        <line class="cls-14" x1="55.49" y1="19.8" x2="75.64" y2="10.78"/>
      </g>
    </g>
  </g>
</svg>