<?xml version="1.0" encoding="UTF-8"?>
<svg id="Layer_2" data-name="Layer 2" xmlns="http://www.w3.org/2000/svg" xmlns:xlink="http://www.w3.org/1999/xlink" viewBox="0 0 62.14 92.34">
  <defs>
    <style>
      .cls-1 {
        fill: #fff;
      }

      .cls-2 {
        stroke-linecap: round;
        stroke-linejoin: round;
      }

      .cls-2, .cls-3, .cls-4 {
        fill: none;
      }

      .cls-2, .cls-4 {
        stroke: #000;
        stroke-width: .25px;
      }

      .cls-5 {
        clip-path: url(#clippath);
      }

      .cls-4 {
        stroke-miterlimit: 10;
      }
    </style>
    <clipPath id="clippath">
      <rect class="cls-3" width="62.14" height="92.34"/>
    </clipPath>
  </defs>
  <g id="Layer_1-2" data-name="Layer 1">
    <g class="cls-5">
      <path class="cls-2" d="m60.83,43.19c-1.15,3.47-3.98,5.99-7.46,7.5m-32.27,8.03c9.08,1.27,18.57.86,26.5-3.83m5.71-3.52c2.77-1.23,5.51-3.04,7.37-5.11m-53.79,6.22c.12.09.2.62.32.71,3.71,2.95,8.92,5.02,13.9,5.53m.24-.55c-.07,0-.13.01-.18.06m37.25-11.06c-.86.69-1.65,1.21-2.49,1.7m-20.48,42.17l-2.13-26.86m-.85.24l2.07,26.68m-1.34-31.97l-.79,4.2m.86.18l.79-4.44m-2.07,5.35c.66.04,1.11-.28,1.28-.91m-.86-.18c0,.17-.11.26-.3.24m28.14,14.16l-24.73,13.67m.3.79l24.86-13.67M15.32,61.93l16.65,2.49m.12-.85l-16.59-2.49m17.8,3.1c0-.15-.04-.31-.12-.42m-.73-.67c-.07-.07-.15-.08-.24-.06m2.31,28.08c.12.78.56,1.22,1.28,1.09m-.24-.73c-.07-.09-.12-.25-.12-.43m-3.22-28.01l-16.1-2.43m-1.4,1.1l-7.78,25.1m.79.25l7.84-25.04m31.97-7.11l4.68-1.22m-.06-.91l-1.04.3m1.1.61c.5-.13.84-.47.97-.97m-.85-.3c.03.19-.03.31-.18.37m-37.07,7.9l-.37-3.27m-.91-.28l.43,3.67m0,0c.12.61.51,1.03,1.09,1.16m.18-.85c-.24-.04-.38-.18-.42-.43m1.03-.06c-.35-.05-.67.05-.91.3m36.83-8.08l.24-.18m8.8-6.1s-.36.33-1.4,1.3c-2.02,2.35-7.34,4.43-7.34,4.43-1.89,1.21-3.89,2.27-5.96,3.16l-.67.24c-7.75,3.3-16.28,3.71-24.61,2.43m-14.16,28.68c-.3.87-.16,1.37.67,1.09m0,0l13.55-15.37m-.67-.61l-12.46,14.22m46-33.72c.04-.29,0-.56-.12-.79m-1.03,5.47l1.16-4.68m-1.09.79l-.85,3.71m-.24,1.15l8.45,18.84m.79-.31l-8.45-18.84m-.3-.43c-.22-.24-.56-.42-.91-.49m1.21.91c-.05-.17-.15-.32-.3-.43m-1.04.37c.18.05.4.2.55.36m-7.72-1.4l7.17,1.03m.12-.85l-5.89-.85m6.57.91s-.11.08-.18.12m.67.61c.17-.12.28-.33.3-.55m-8.93-.37l7.71,1.16m-29.96,13l.49-7.9m.06-1.46l.18-2.67m-.85-.06l-.18,2.61m-.06,1.46l-.49,7.96m39.81,7.72c.55-.51.7-1.23.43-1.95m-.79.31c.1.31.08.66-.06.85m-39.38-6.92c-.04.39-.18.82-.37,1.09m.67.61c.31-.49.5-1.05.54-1.64m34.22-22c-.1.24-.22.46-.36.67m-34.46,9.18c-.11-.21-.08-.4.06-.49m-13.55,29.65c.05-.03.09-.09.12-.18m13.43-15.19c.03-.07.05-.1.12-.18m31.6-15.25c.01.08-.04.13-.12.12m-31.06,13.67v.12m39.72-32.82c-15.16,4.78-32.87.59-45.93-7.64m31.12,19.42c2.95-6.67,2.56-15.01,2.91-22.13.42-8.64,1.14-17.1,1.71-25.73m-7.98,48.17c3.4-6.53,2.95-15.44,3.59-22.61.77-8.71,1.38-17.2,2.52-25.87m6.09,2.2c-.3,7.24-.24,14.82.12,22.06.08,3.53.07,7.05-.06,10.58-.13,3.68.62,8.33-1.44,11.54m-22.34.49c3.35-7.47,4.07-16.17,5.91-24.1,1.89-7.98,3.98-15.54,6.05-23.49m-15.19,46.48c3.29-7.36,3.87-15.87,6.41-23.55,2.34-7.78,4.48-15.29,6.89-23.05m14.09,47.97c2.86-4.58,2.75-11.53,2.67-16.68-.34-9.04-.03-17.4-1.05-26.41M19.78,43.55c2.74-6.57,4.86-13.38,7.69-19.92,3.19-7.38,5.65-15.48,9.42-22.56m23.9,42.18c-7.07,4.28-16.13,3.92-24.02,2.46-8.55-1.63-17.12-4.99-24.33-9.84m37.78,13.4c3.39-6.32,2.14-16.04,2.49-23,.36-7.89.35-15.78.5-23.67m8.21,29.02c-6.5,1.97-14.07,1.38-20.68.33-7.76-1.23-15.08-3.71-22.32-6.66m19.11,24.65c3.53-6.62,3.51-15.59,4.61-22.87,1.31-8.71,2.8-17.03,4.48-25.67m-6.1,48.78c3.03-7.45,2.78-16.64,3.86-24.53,1.06-8.15,2.17-16.11,3.68-24.2m13.18,23.95c-13.37,1.63-27.51-1.19-39.95-6.14m13.68,30.18c3.42-6.84,3.57-15.34,5.12-22.71,1.81-8.62,3.35-16.95,5.1-25.59m15.67,17.19c-11.85.92-24.87-1.5-35.99-5.57m-9.38,29.05c3.45-6.14,5.44-13.03,8.52-19.36,3.34-6.87,6.45-13.33,10.04-20.08m-9.78,43.31c3.21-7.2,4.77-15.13,7.16-22.63,2.52-7.54,5.47-14.54,8.21-22.01m20.61,10.57c-10.73,0-20.85-1.91-31.18-4.61"/>
      <path class="cls-1" d="m18,25.83C22.63,16.83,27.57,4.67,36.98,1.29c2.79-1,14.1.29,15.8,1.13.2.1.39.2.58.31,10.44,5.86,7.56,24.27,8.08,35.37l-.77,8.14.4.28s.85-9.36.76-9.45c-.06-1.91.12-3.79.14-6.01.11-11.01.41-23.93-8.61-28.73-.18-.1-.37-.19-.57-.29-1.7-.81-13.05-2.09-15.85-1.13-8.64,2.96-13.39,12.78-17.59,21.22-.6,1.19-1.18,2.37-1.73,3.45-3.51,5.52-6.34,11.93-8.88,18.36l.56-.24c2.39-6,5.16-12.34,8.68-17.89"/>
      <path class="cls-2" d="m18,25.83C22.63,16.83,27.57,4.67,36.98,1.29c2.79-1,14.1.29,15.8,1.13.2.1.39.2.58.31,10.44,5.86,7.56,24.27,8.08,35.37l-.77,8.14.4.28s.85-9.36.76-9.45c-.06-1.91.12-3.79.14-6.01.11-11.01.41-23.93-8.61-28.73-.18-.1-.37-.19-.57-.29-1.7-.81-13.05-2.09-15.85-1.13-8.64,2.96-13.39,12.78-17.59,21.22-.6,1.19-1.18,2.37-1.73,3.45-3.51,5.52-6.34,11.93-8.88,18.36l.56-.24c2.39-6,5.16-12.34,8.68-17.89Z"/>
      <path class="cls-1" d="m53.37,50.69c2.23-1.73,3.89-3.41.24-2.67l.36-.12c-5.36,1.93-11.07,2.53-16.71,1.76-7.93-1.61-21.04-12.35-28.18-5.98-8.97,8.01,5.67,13.6,12.01,13.58,11.33,1.77,22.82.2,32.27-6.57"/>
      <path class="cls-2" d="m53.37,50.69c2.23-1.73,3.89-3.41.24-2.67l.36-.12c-5.36,1.93-11.07,2.53-16.71,1.76-7.93-1.61-21.04-12.35-28.18-5.98-8.97,8.01,5.67,13.6,12.01,13.58,11.33,1.77,22.82.2,32.27-6.57Z"/>
      <path class="cls-2" d="m21.1,58.1c-5.54-.34-11.06-2.64-14.71-6.32l.09-1.89"/>
      <path class="cls-4" d="m18.43,75.74l2.24-2.47m-11.75,13.35l2.24-2.47m44.34-2.61l2.91-1.62m-18.36,10.14l2.91-1.62"/>
      <path class="cls-2" d="m6.59,46.89l-.18-8.31m-.38,9.79l-.17-9.58m2.12-1.12l.18,7.25m.49-.45l-.18-7.39"/>
      <path class="cls-1" d="m.82,40.09c-2.06-1.68.91-5.4,2.84-6.5,2.54-1.44,6.63-1.51,9.46-.83.74.17,1.92,1.43,1.34,2.3-.7,1.05-1.94.94-3.12,1.12-3.63.56-6.02,3.66-9.47,4.32,0,0-.57-.06-1.05-.42"/>
      <path class="cls-2" d="m.82,40.09c-2.06-1.68.91-5.4,2.84-6.5,2.54-1.44,6.63-1.51,9.46-.83.74.17,1.92,1.43,1.34,2.3-.7,1.05-1.94.94-3.12,1.12-3.63.56-6.02,3.66-9.47,4.32,0,0-.57-.06-1.05-.42Z"/>
      <polygon class="cls-4" points="48.04 42.5 46.79 55.78 47.65 55.35 48.84 42.31 48.04 42.5"/>
      <polygon class="cls-1" points="55.7 40.22 54.48 51.68 53.52 52.16 54.7 40.75 55.7 40.22"/>
      <polygon class="cls-2" points="55.7 40.22 54.48 51.68 53.52 52.16 54.7 40.75 55.7 40.22"/>
      <path class="cls-1" d="m42.25,46.86c.46-.03.9-.14,1.34-.23.87-.17,1.74-.33,2.6-.52,2.05-.45,4.05-.95,6.07-1.52.84-.24,1.63-.52,2.44-.83,1.23-.47,2.28-.85,2.44-2.34.06-.56.4-1.13,0-1.65-.48-.61-1.17-1.05-1.88-1.34-1-.4-2.16-.55-3.21-.76-.91-.18-1.64-.09-2.44.41-.64.4-.39,1.47-.72,2.11-.1.19-.59.29-.78.37-1.1.45-2.2.91-3.3,1.37-.82.34-1.69.54-2.52.85-.56.22-1.16.42-1.56.89-.8.74-.62,1.53-.62,1.53,0,0,.7,1.85,2.12,1.64"/>
      <path class="cls-2" d="m42.25,46.86c.46-.03.9-.14,1.34-.23.87-.17,1.74-.33,2.6-.52,2.05-.45,4.05-.95,6.07-1.52.84-.24,1.63-.52,2.44-.83,1.23-.47,2.28-.85,2.44-2.34.06-.56.4-1.13,0-1.65-.48-.61-1.17-1.05-1.88-1.34-1-.4-2.16-.55-3.21-.76-.91-.18-1.64-.09-2.44.41-.64.4-.39,1.47-.72,2.11-.1.19-.59.29-.78.37-1.1.45-2.2.91-3.3,1.37-.82.34-1.69.54-2.52.85-.56.22-1.16.42-1.56.89-.8.74-.62,1.53-.62,1.53,0,0,.7,1.85,2.12,1.64Z"/>
      <path class="cls-2" d="m41.42,43.69c-.64-.08.39-.61.51-.7.62-.41,1.56-.64,2.27-.87,1.66-.55,3.36-1.21,4.93-1.99.47-.24,1.57-.55,1.57-1.18,0-.38-.66-.82-.53-1.09.13-.27,1.32-.27,1.62-.17.74.24,1.66.3,2.44.45.88.17,3.63,1.38,1.54,2.07-1.59.52-3.19,1.08-4.81,1.56-1.61.48-3.27.88-4.9,1.26-1.42.33-2.95.77-4.37.66-.08,0-.19-.01-.27,0"/>
      <path class="cls-1" d="m1.91,38.11c-1.55-1.41,1.19-3.88,2.72-4.57,2.02-.9,5.26-.94,7.52-.52.58.11,1.52.9,1.06,1.44-.56.66-1.54.59-2.48.7-2.88.35-5.24,2.71-7.98,3.12l-.83-.18Z"/>
      <path class="cls-2" d="m1.91,38.11c-1.55-1.41,1.19-3.88,2.72-4.57,2.02-.9,5.26-.94,7.52-.52.58.11,1.52.9,1.06,1.44-.56.66-1.54.59-2.48.7-2.88.35-5.24,2.71-7.98,3.12l-.83-.18Z"/>
      <path class="cls-1" d="m20.16,22.03c.79,2.32,5.35,5.47,14.74,7.82,8.71,2.18,19.9,1.27,22.79.4,1.97-.59,2.36-1.35,2.98-4.38.56-2.78.32-15.62-3.66-20.26-.7-.82-1.56-1.81-2.39-2.45-1.99-1.53-4.64-2.15-8.68-2.64-2.98-.36-6.38-.77-9.18.22-1.84.65-3.72,1.91-5.29,3.44-3.04,2.53-12.1,15.53-11.31,17.85"/>
      <path class="cls-2" d="m20.16,22.03c.79,2.32,5.35,5.47,14.74,7.82,8.71,2.18,19.9,1.27,22.79.4,1.97-.59,2.36-1.35,2.98-4.38.56-2.78.32-15.62-3.66-20.26-.7-.82-1.56-1.81-2.39-2.45-1.99-1.53-4.64-2.15-8.68-2.64-2.98-.36-6.38-.77-9.18.22-1.84.65-3.72,1.91-5.29,3.44-3.04,2.53-12.1,15.53-11.31,17.85Z"/>
    </g>
  </g>
</svg>