<?xml version="1.0" encoding="UTF-8"?>
<svg id="Layer_2" data-name="Layer 2" xmlns="http://www.w3.org/2000/svg" xmlns:xlink="http://www.w3.org/1999/xlink" viewBox="0 0 71.19 118.27">
  <defs>
    <style>
      .cls-1 {
        fill: #fff;
      }

      .cls-2 {
        stroke-linecap: round;
        stroke-linejoin: round;
      }

      .cls-2, .cls-3, .cls-4, .cls-5 {
        fill: none;
      }

      .cls-2, .cls-4, .cls-5 {
        stroke: #000;
        stroke-width: .25px;
      }

      .cls-6 {
        clip-path: url(#clippath);
      }

      .cls-5 {
        stroke-miterlimit: 10;
      }
    </style>
    <clipPath id="clippath">
      <rect class="cls-3" width="71.19" height="118.27"/>
    </clipPath>
  </defs>
  <g id="Layer_1-2" data-name="Layer 1">
    <g class="cls-6">
      <path class="cls-4" d="m19.51,59.13l-5.47-1.21-5.07-1.63-4.38-2.89-1.51-2.84.54-2.64,8.27-9.21,4.33-4.5,2.89-3.76L36.88,4.38l2.36-2.26,2.49-.78L54.78.12l12.57,1.23,2.89,1.87.52,2.43.22,32.19-.68,2.74-2.23,3.05-22.21,14.71-2.74,1.07-3.32.14-11.7.4-8.6-.82Zm-3.64-23.7l4.9,3.94,10.14,5.79,27.06,4.53,10.06-.18-.97-5.21m-53.25-6.73l4.8,3.98,10.55,4.89,26.71,5.12,8.41,1.06-1.42-5.54m-51.87-6.5l3.77,4.02,5.42,1.5,5.69,2.01,27.26,5.07,7.31,1.46-1.5-4.97m-51.29-5.37l3.79,3.01,5.15,1.7,33.72,5.84,6.46.91-1.58-3.6m-51.36-3.39l8.37,3.3,36.59,5.6-.49-1.46m-30.96-22.54l5.61,4.27,12.53,5.11,22.18,3.72,10.18-.63,2.46-1.14-1.51-2.37M4.86,102.79l2.71-1.58m16.99-9.71l2.75-1.58m20.54,26.44l2.17-1.81m14.62-12.15l2.17-1.8m-21.39-42.33l11.34-2.22s5.44-1.85,8.22-3.88c2.78-2.03,5.23-4.68,5.47-6.51.24-1.83.55-6.68.55-6.68l-.77-11.74M4.72,52.79l18.25-14.86L41.9,1.57M7.5,54.84l18.31-12.6s2.88-1.59,4.55-5.79L44.51,1.32M11.39,56.62l20.53-12.05s2.24-1.83,3.51-5.28L46.91,1.07M15.05,57.66l22.33-13.46s2.15-1.59,2.4-3.14c.7-2.85,9.88-40.17,9.88-40.17m-29.55,57.77l20.79-13.82s1.66-.84,2.2-3.13L51.64.66m-26.4,58.49l19.47-13.6s1.6-.77,1.87-3.2L52.68.56m15.19,45.58s1.29-.9,1.62-2.97c.33-2.07-1.3-41.07-1.3-41.07m-15.96,54.83l14.75-10.88-.24-5.09-1.85-39.7m-16.08,56.42l14.14-11.81-.95-44.7m-17.79,57.5l13.14-10.99s2.43-2.13,2.03-3.91l-.32-43.05m-19.47,58.27l15.11-11.61s1.26-1.39,1.8-5.09l.98-41.65m-21.63,58.49l15.73-12.47s1.45-1.7,1.7-2.92L55.82.43m-25.4,58.86l17.56-13.16s1.83-1.22,1.86-2.95L54.68.26m-19.32,7.32l11.15.95,12.06.27,11.43-2.62m-38.32,6.83l12.35,3.2,16.76.63,9.4-2.48m-42.64,4.56l14.36,4.43,17.89,1.13,10.39-2.04m-47.2,3.48l16.31,5.78,21.14,1.49,9.76-2.35m-51.18.67l17.88,7.77,20.69,2.89h.45l9.94-.76,3.03-1.26-1-1.22M37.6,4.27l-18.07,26.56-2.98,3.88-4.43,4.61-8.22,9.17-.4,1.99,1.22,2.3,4.02,2.98,4.88,1.58,5.51,1.22,8.63.81,11.83-.41,3.26-.14,2.57-.68,22.36-15.09,1.9-2.53.63-2.98-.23-32.61-.4-1.9-2.3-1.49-12.43-1.22-13.05,1.22-2.17.68-2.12,2.03Z"/>
      <path class="cls-2" d="m30.94,49.84c-.22-.96-1.33-.36-1.33-.36l-3.84,2.59-12.33,8.3,1.62-.13,15.5,2.76.26-9.03.12-4.14Zm-.37,13.17l-.69,24.15-.14.27-.18.22L1.83,103.69l-.64-.09-.49-.72.22-2.48,11.65-39.21c.34-.75.86-.81.86-.81l12.33-8.3,3.84-2.59s1.12-.61,1.33.36l-.12,4.14-.26,9.03.69.12.26-13.28s0-.1-.01-.14c-.12-.54-.43-.78-.68-.89-.63-.28-1.36.07-1.54.18l-16.09,10.84c-.28.09-.8.36-1.17,1.18L.35,100.34l-.23,2.49c0,.13.02.27.1.38l.49.72c.09.14.23.22.39.25l.64.09c.12.02.26,0,.37-.07l27.73-16.03c.06-.04.12-.08.16-.14l.18-.23s.05-.06.06-.1l.14-.27c.04-.08.06-.16.06-.24l.8-24.04-.69-.12Zm-17.13-2.63s-.52.06-.86.81L.92,100.4l-.22,2.48.49.72.64.09,27.73-16.03.18-.22.14-.27.69-24.15-15.5-2.76-1.62.13Zm26.7,4.33s.41,0,1.53,1.09c0,0,.89.88,1.09,1.99l.99,47.65.09,1.09.18.9.68.54.68.18,11.74-9.71,11.61-9.71.41-1.13.13-1.12-.09-1.26-.36-1.27-10.87-34.63c-.84-2.4-1.86-2.33-3.11-2.89l-1.04.2c1.13.37,2.74.58,3.61,2.86l10.86,34.62.34,1.21.09,1.09-.12,1.06-.34.92-11.49,9.61-11.51,9.52-.27-.07-.42-.33-.13-.63-.09-1.05-1-47.74c-.22-1.28-1.2-2.25-1.25-2.3-1.07-1.02-1.61-1.23-1.83-1.23l-25.54-4.61-1.01.82,1.38-.11,16.2,2.89,8.88,1.58Zm-26.21-3.53c.04.82.49.9.49.9l23.4,3.98s3.37.75,3.43-2.62v-3.95l3.21-2.55-.77-.13-2.79,2.23c-.14.11-.22.28-.22.45v3.94c-.01.8-.24,1.37-.67,1.71-.78.62-2.05.36-2.09.35l-23.31-3.95s-.09-.08-.1-.38l-.1-3.24h-.58l.11,3.27Zm38.1-10.34l-.66-.07-7.12,5.62.77.13,7.01-5.68Zm-8.37,6.04l.6-.49-20.63-3.47-.83.51,20.87,3.45Zm11.27,1.83s4.42,1.24,4.67-1.98l-.06-2.37h-.58l.06,2.32c-.05.68-.28,1.15-.69,1.43-.76.53-2.08.3-2.59.16l-10.66-1.75-.61.48,10.46,1.7Zm4.61-6.57l-28.68-5.37-16.43,10.76"/>
      <path class="cls-1" d="m58.9,49.77l1.35,4.46c1.3-.67,2.68-1.46,3.82-2.16l-1.26-4.89-3.91,2.59Z"/>
      <path class="cls-4" d="m58.9,49.77l1.35,4.46c1.3-.67,2.68-1.46,3.82-2.16l-1.26-4.89-3.91,2.59Z"/>
      <path class="cls-1" d="m64.07,52.08c1.09-.67,1.94-1.24,2.23-1.51.73-.68,3.18-3.43,1.5-4.44-.82-.5-1.26-.86-1.82-1.04l-3.17,2.1,1.26,4.89Z"/>
      <path class="cls-1" d="m64.07,52.08c1.09-.67,1.94-1.24,2.23-1.51.73-.68,3.18-3.43,1.5-4.44-.82-.5-1.26-.86-1.82-1.04l-3.17,2.1,1.26,4.89Z"/>
      <path class="cls-5" d="m64.07,52.08c1.09-.67,1.94-1.24,2.23-1.51.73-.68,3.18-3.43,1.5-4.44-.82-.5-1.26-.86-1.82-1.04l-3.17,2.1,1.26,4.89Z"/>
      <path class="cls-1" d="m47.33,57.44c2.84-.46,6.76-1.11,9.32-1.78l-1.5-3.4,1.5,3.4c.77-.2,1.43-.4,1.89-.6.53-.23,1.11-.51,1.71-.82l-1.35-4.46-11.57,7.67Z"/>
      <path class="cls-4" d="m47.33,57.44c2.84-.46,6.76-1.11,9.32-1.78l-1.5-3.4,1.5,3.4c.77-.2,1.43-.4,1.89-.6.53-.23,1.11-.51,1.71-.82l-1.35-4.46-11.57,7.67Z"/>
      <path class="cls-1" d="m46.34,57.6c.31-.05.64-.11.99-.16l11.57-7.67,3.91-2.59,3.18-2.1c-.26-.08-.56-.12-.92-.11l-18.72,12.63Z"/>
      <path class="cls-4" d="m46.34,57.6c.31-.05.64-.11.99-.16l11.57-7.67,3.91-2.59,3.18-2.1c-.26-.08-.56-.12-.92-.11l-18.72,12.63Z"/>
      <path class="cls-1" d="m63.33,45.22c-2.71.6-9.06,2.63-13.37,2.5-4.31-.12-9.58-2.62-12.37-3.78-2.79-1.16-8.98-6.33-16.38-5.07-4.21.71-7.12,3.42-10.56,5.62-3.44,2.2-5.43,6.38-5.02,7.84.4,1.46,3.39,2.25,6.04,3.66,2.65,1.41,10.44,1.96,12.98,2.29,2.54.33,8.18.18,9.64.36,3.1.39,7.96-.26,9.83-.66.41-.09,1.21-.22,2.22-.38l18.72-12.63c-.44.01-.98.09-1.73.25"/>
      <path class="cls-1" d="m63.33,45.22c-6.43,1.42-12.22,3.53-18.79,1.45-6.02-1.9-11.24-6.09-17.34-7.55-6.99-1.68-15.87,2.87-19.93,8.66-4.1,5.83,2.51,8.16,7.68,9.22,7.28,1.49,25.12,4.82,31.54.48,6.18-4.17,12.37-8.35,18.56-12.52-.58.08-1.15.17-1.73.25-2.71.6.75-.16,0,0"/>
      <path class="cls-5" d="m63.33,45.22c-6.43,1.42-12.22,3.53-18.79,1.45-6.02-1.9-11.24-6.09-17.34-7.55-6.99-1.68-15.87,2.87-19.93,8.66-4.1,5.83,2.51,8.16,7.68,9.22,7.28,1.49,25.12,4.82,31.54.48,6.18-4.17,12.37-8.35,18.56-12.52-.58.08-1.15.17-1.73.25-2.71.6.75-.16,0,0Z"/>
      <path class="cls-5" d="m8.27,50.23c1.69,2.51,7.46,4.96,16.11,5.81,5.66.56,12.78,1.04,20.29-.4"/>
    </g>
  </g>
</svg>