<?xml version="1.0" encoding="UTF-8"?>
<svg id="Layer_2" data-name="Layer 2" xmlns="http://www.w3.org/2000/svg" viewBox="0 0 208.63 313.51">
  <defs>
    <style>
      .cls-1, .cls-2 {
        stroke-miterlimit: 2.41;
      }

      .cls-1, .cls-2, .cls-3 {
        fill: none;
        stroke-width: .28px;
      }

      .cls-1, .cls-3 {
        stroke: #231f20;
      }

      .cls-2 {
        stroke: #000;
      }

      .cls-3 {
        stroke-miterlimit: 10;
      }
    </style>
  </defs>
  <g id="Laag_1" data-name="Laag 1">
    <g>
      <rect class="cls-3" x=".14" y=".14" width="2.27" height="313.23"/>
      <rect class="cls-2" x="2.41" y="256.34" width="100.41" height="2.27"/>
      <rect class="cls-3" x="2.44" y="305.33" width="100.35" height="8.04"/>
      <rect class="cls-2" x="2.41" y="200.84" width="100.41" height="2.27"/>
      <rect class="cls-2" x="2.41" y="126.42" width="100.35" height="2.27"/>
      <path class="cls-2" d="m208.49,26.36c0-14.48-11.74-26.22-26.22-26.22s-26.22,11.74-26.22,26.22c0,.05,0,.1,0,.16h0v286.85h52.44V26.52h0c0-.05,0-.1,0-.16Z"/>
      <rect class="cls-3" x="102.76" y=".14" width="2.27" height="313.23"/>
      <rect class="cls-2" x="2.41" y="74.29" width="100.35" height="2.27"/>
      <rect class="cls-2" x="2.41" y="142.57" width="100.41" height="2.27"/>
      <g>
        <rect class="cls-1" x="2.41" y="35.46" width="100.35" height="1.42"/>
        <path class="cls-1" d="m5.24,22.37c-.7,0-1.27-.39-1.27-.88h0c0-.48.56-.87,1.27-.87h94.2c.69,0,1.26.39,1.26.87h0c0,.48-.57.88-1.26.88H5.24Z"/>
        <path class="cls-1" d="m5.24,25.87c-.7,0-1.27-.39-1.27-.87h0c0-.48.56-.88,1.27-.88h94.2c.69,0,1.26.39,1.26.88h0c0,.48-.57.87-1.26.87H5.24Z"/>
        <path class="cls-1" d="m5.33,11.87c-.7,0-1.26-.39-1.26-.88h0c0-.48.57-.88,1.26-.88h94.19c.7,0,1.27.4,1.27.88h0c0,.48-.57.88-1.27.88H5.33Z"/>
        <path class="cls-1" d="m5.33,15.37c-.7,0-1.26-.39-1.26-.88h0c0-.48.57-.87,1.26-.87h94.19c.7,0,1.27.39,1.27.87h0c0,.48-.57.88-1.27.88H5.33Z"/>
        <path class="cls-1" d="m5.33,18.87c-.7,0-1.27-.39-1.27-.87h0c0-.48.57-.88,1.27-.88h94.19c.7,0,1.27.39,1.27.88h0c0,.48-.57.87-1.27.87H5.33Z"/>
        <path class="cls-1" d="m5.24,1.89c-.7,0-1.26-.39-1.26-.88h0c0-.48.56-.87,1.26-.87h94.2c.69,0,1.26.39,1.26.87h0c0,.48-.57.88-1.26.88H5.24Z"/>
        <path class="cls-1" d="m5.24,4.79c-.7,0-1.26-.39-1.26-.87h0c0-.49.56-.88,1.26-.88h94.2c.69,0,1.26.39,1.26.88h0c0,.48-.57.87-1.26.87H5.24Z"/>
        <path class="cls-1" d="m5.24,8.3c-.7,0-1.26-.4-1.26-.88h0c0-.48.56-.88,1.26-.88h94.2c.7,0,1.27.39,1.27.88h0c0,.48-.57.88-1.27.88H5.24Z"/>
        <path class="cls-1" d="m5.29,32.87c-.7,0-1.27-.39-1.27-.88h0c0-.48.57-.87,1.27-.87h94.2c.7,0,1.27.39,1.27.87h0c0,.48-.57.88-1.27.88H5.29Z"/>
        <path class="cls-1" d="m5.38,29.37c-.7,0-1.26-.39-1.26-.88h0c0-.48.57-.88,1.26-.88h94.2c.7,0,1.26.4,1.26.88h0c0,.48-.57.88-1.26.88H5.38Z"/>
      </g>
      <line class="cls-1" x1="3.98" y1="1.01" x2="2.41" y2="1.01"/>
      <line class="cls-1" x1="100.7" y1="1.01" x2="102.76" y2="1.01"/>
    </g>
  </g>
</svg>