<?xml version="1.0" encoding="UTF-8"?>
<svg id="Layer_2" data-name="Layer 2" xmlns="http://www.w3.org/2000/svg" viewBox="0 0 181.7 241.42">
  <defs>
    <style>
      .cls-1, .cls-2 {
        stroke-miterlimit: 2.41;
      }

      .cls-1, .cls-2, .cls-3 {
        fill: none;
        stroke-width: .28px;
      }

      .cls-1, .cls-3 {
        stroke: #231f20;
      }

      .cls-2 {
        stroke: #000;
      }

      .cls-3 {
        stroke-miterlimit: 10;
      }
    </style>
  </defs>
  <g id="Laag_1" data-name="Laag 1">
    <g>
      <rect class="cls-3" x=".14" y=".31" width="2.27" height="240.94"/>
      <rect class="cls-3" x="75.83" y=".31" width="2.27" height="240.94"/>
      <rect class="cls-2" x="2.41" y="181.05" width="73.42" height="2.27"/>
      <rect class="cls-3" x="2.41" y="233.21" width="73.42" height="8.04"/>
      <g>
        <rect class="cls-1" x="2.53" y="33.77" width="73.3" height="1.42"/>
        <path class="cls-1" d="m4.97,22.54c-.51,0-.91-.39-.91-.88h0c0-.48.41-.87.91-.87h67.84c.5,0,.91.39.91.87h0c0,.48-.41.88-.91.88H4.97Z"/>
        <path class="cls-1" d="m4.97,26.04c-.51,0-.91-.39-.91-.87h0c0-.48.41-.88.91-.88h67.84c.5,0,.91.39.91.88h0c0,.48-.41.87-.91.87H4.97Z"/>
        <path class="cls-1" d="m5.04,12.04c-.5,0-.91-.39-.91-.88h0c0-.48.41-.88.91-.88h67.84c.51,0,.91.4.91.88h0c0,.48-.41.88-.91.88H5.04Z"/>
        <path class="cls-1" d="m5.04,15.54c-.5,0-.91-.39-.91-.88h0c0-.48.41-.87.91-.87h67.84c.51,0,.91.39.91.87h0c0,.48-.41.88-.91.88H5.04Z"/>
        <path class="cls-1" d="m5.04,19.04c-.51,0-.91-.39-.91-.87h0c0-.48.41-.88.91-.88h67.84c.51,0,.91.39.91.88h0c0,.48-.41.87-.91.87H5.04Z"/>
        <path class="cls-1" d="m4.96,2.06c-.5,0-.91-.39-.91-.88h0c0-.48.4-.87.91-.87h67.85c.5,0,.91.39.91.87h0c0,.48-.41.88-.91.88H4.96Z"/>
        <path class="cls-1" d="m4.96,4.96c-.5,0-.91-.39-.91-.87h0c0-.49.4-.88.91-.88h67.85c.5,0,.91.39.91.88h0c0,.48-.41.87-.91.87H4.96Z"/>
        <path class="cls-1" d="m4.96,8.47c-.5,0-.91-.4-.91-.88h0c0-.48.4-.88.91-.88h67.84c.5,0,.91.39.91.88h0c0,.48-.41.88-.91.88H4.96Z"/>
        <path class="cls-1" d="m5,33.04c-.51,0-.91-.39-.91-.88h0c0-.48.41-.87.91-.87h67.84c.5,0,.91.39.91.87h0c0,.48-.41.88-.91.88H5Z"/>
        <path class="cls-1" d="m5.07,29.54c-.5,0-.91-.39-.91-.88h0c0-.48.41-.88.91-.88h67.84c.5,0,.91.4.91.88h0c0,.48-.41.88-.91.88H5.07Z"/>
      </g>
      <rect class="cls-2" x="2.41" y="128.2" width="73.48" height="2.27"/>
      <rect class="cls-2" x="2.41" y="77.46" width="73.42" height="2.27"/>
      <path class="cls-2" d="m181.56,26.36c0-14.48-11.74-26.22-26.22-26.22s-26.22,11.74-26.22,26.22c0,.05,0,.1,0,.16h0v214.76h52.44V26.52h0c0-.05,0-.1,0-.16Z"/>
      <line class="cls-3" x1="4.06" y1="1.18" x2="2.41" y2="1.18"/>
      <line class="cls-3" x1="73.72" y1="1.18" x2="75.83" y2="1.18"/>
    </g>
  </g>
</svg>