<?xml version="1.0" encoding="UTF-8"?>
<svg id="Layer_2" data-name="Layer 2" xmlns="http://www.w3.org/2000/svg" viewBox="0 0 181.83 290.83">
  <defs>
    <style>
      .cls-1, .cls-2 {
        stroke-miterlimit: 2.41;
      }

      .cls-1, .cls-2, .cls-3 {
        fill: none;
        stroke-width: .28px;
      }

      .cls-1, .cls-3 {
        stroke: #231f20;
      }

      .cls-2 {
        stroke: #000;
      }

      .cls-3 {
        stroke-miterlimit: 10;
      }
    </style>
  </defs>
  <g id="Laag_1" data-name="Laag 1">
    <g>
      <path class="cls-2" d="m181.69,26.83c0-14.48-11.74-26.22-26.22-26.22s-26.22,11.74-26.22,26.22c0,.05,0,.1,0,.16h0v263.7h52.44V26.99h0c0-.05,0-.1,0-.16Z"/>
      <g>
        <rect class="cls-3" x=".14" y=".14" width="2.27" height="290.55"/>
        <rect class="cls-2" x="2.41" y="230.49" width="73.55" height="2.27"/>
        <rect class="cls-3" x="2.41" y="282.65" width="73.55" height="8.04"/>
        <rect class="cls-2" x="2.41" y="177.64" width="73.61" height="2.27"/>
        <rect class="cls-2" x="2.41" y="126.89" width="73.55" height="2.27"/>
        <rect class="cls-3" x="75.96" y=".14" width="2.27" height="290.55"/>
        <rect class="cls-2" x="2.41" y="74.76" width="73.55" height="2.27"/>
        <rect class="cls-1" x="2.41" y="33.6" width="73.55" height="1.42"/>
        <g>
          <path class="cls-1" d="m5.09,22.37c-.51,0-.91-.39-.91-.88h0c0-.48.41-.87.91-.87h67.84c.5,0,.91.39.91.87h0c0,.48-.41.88-.91.88H5.09Z"/>
          <path class="cls-1" d="m5.09,25.87c-.51,0-.91-.39-.91-.87h0c0-.48.41-.88.91-.88h67.84c.5,0,.91.39.91.88h0c0,.48-.41.87-.91.87H5.09Z"/>
          <path class="cls-1" d="m5.16,11.87c-.5,0-.91-.39-.91-.88h0c0-.48.41-.88.91-.88h67.84c.51,0,.91.4.91.88h0c0,.48-.41.88-.91.88H5.16Z"/>
          <path class="cls-1" d="m5.16,15.37c-.5,0-.91-.39-.91-.88h0c0-.48.41-.87.91-.87h67.84c.51,0,.91.39.91.87h0c0,.48-.41.88-.91.88H5.16Z"/>
          <path class="cls-1" d="m5.16,18.87c-.51,0-.91-.39-.91-.87h0c0-.48.41-.88.91-.88h67.84c.51,0,.91.39.91.88h0c0,.48-.41.87-.91.87H5.16Z"/>
          <path class="cls-1" d="m5.08,1.89c-.5,0-.91-.39-.91-.88h0c0-.48.4-.87.91-.87h67.85c.5,0,.91.39.91.87h0c0,.48-.41.88-.91.88H5.08Z"/>
          <path class="cls-1" d="m5.08,4.79c-.5,0-.91-.39-.91-.87h0c0-.49.4-.88.91-.88h67.85c.5,0,.91.39.91.88h0c0,.48-.41.87-.91.87H5.08Z"/>
          <path class="cls-1" d="m5.08,8.3c-.5,0-.91-.4-.91-.88h0c0-.48.4-.88.91-.88h67.84c.5,0,.91.39.91.88h0c0,.48-.41.88-.91.88H5.08Z"/>
          <path class="cls-1" d="m5.12,32.87c-.51,0-.91-.39-.91-.88h0c0-.48.41-.87.91-.87h67.84c.5,0,.91.39.91.87h0c0,.48-.41.88-.91.88H5.12Z"/>
          <path class="cls-1" d="m5.19,29.37c-.5,0-.91-.39-.91-.88h0c0-.48.41-.88.91-.88h67.84c.5,0,.91.4.91.88h0c0,.48-.41.88-.91.88H5.19Z"/>
        </g>
        <line class="cls-3" x1="4.24" y1="1.01" x2="2.41" y2="1.01"/>
        <line class="cls-3" x1="73.94" y1="1.01" x2="75.96" y2="1.01"/>
      </g>
    </g>
  </g>
</svg>