<svg viewBox="0 0 375 59" fill="none" xmlns="http://www.w3.org/2000/svg">
	<g clip-path="url(#ab)" fill="#231F20"><path d="M370.427 31.5695c0 10.6555-8.075 14.1571-17.413 14.1571h-1.604V17.4124h1.604c9.338 0 17.413 3.4539 17.413 14.1571ZM375 31.371c0-12.2118-9.337-18.143-20.58-18.143h-7.591v36.683h7.448c11.576 0 20.723-6.0344 20.723-18.532M303.317 49.911h4.574V22.5734l27.536 28.8462V13.2359h-4.574v27.0915l-27.536-28.8462V49.911ZM285.222 36.5321h-13.038l6.519-14.8399 6.519 14.8399Zm10.997 13.379-17.516-38.2392-17.515 38.2392h4.914l4.185-9.1946h16.833l4.184 9.1946h4.915ZM242.473 13.2361h-4.574v36.675h15.714v-4.1764h-11.14V13.2361ZM219.59 23.8836c0 5.8359-5.058 6.7172-9.727 6.7172h-1.461V17.3171h1.215c4.526 0 9.973.8258 9.973 6.5665Zm4.279-.1985c0-3.5016-1.754-6.9555-4.819-8.7579-2.922-1.6515-6.424-1.6992-9.679-1.6992h-5.55v36.683h4.573V34.3882h1.898L221.09 49.911h5.542l-11.576-15.9595c5.304-.6352 8.805-5.0101 8.805-10.2664M170.028 49.9111h19.707v-4.1764h-15.134V31.8634h14.697V27.679h-14.697V17.4125h15.134v-4.1764h-19.707v36.675ZM154.021 31.5695c0 10.6555-8.075 14.1571-17.421 14.1571h-1.603V17.4124h1.603c9.338 0 17.421 3.4539 17.421 14.1571Zm4.573-.1985c0-12.2118-9.337-18.143-20.58-18.143h-7.591v36.683h7.44c11.576 0 20.723-6.0344 20.723-18.532M108.207 13.2361h-4.574v36.675h15.714v-4.1764h-11.14V13.2361ZM70.6345 49.9111h19.6992v-4.1764H75.208V31.8634h14.6891V27.679H75.208V17.4125h15.1257v-4.1764H70.6345v36.675ZM58.2084 26.8532H29.1558v4.764h24.2727c-1.2386 12.2991-11.648 21.9304-24.2727 21.9304-13.4504 0-24.39178-10.9414-24.39178-24.3918S15.7054 4.76402 29.1558 4.76402c8.2894 0 15.6181 4.15264 20.0248 10.48878l3.843-2.8108C47.7514 4.92282 39.0173 0 29.1558 0 13.0772 0 0 13.0772 0 29.1558s13.0772 29.1558 29.1558 29.1558 29.1558-13.0772 29.1558-29.1558c0-.7781-.0476-1.5404-.1032-2.3026Z"></path></g>
	<defs>
		<clipPath id="ab"><path fill="#fff" d="M0 0h375v58.3196H0z"></path></clipPath>
	</defs>
</svg>