<?xml version="1.0" encoding="utf-8"?>
<!-- Generator: Adobe Illustrator 25.2.3, SVG Export Plug-In . SVG Version: 6.00 Build 0)  -->
<svg version="1.1" id="Layer_1" xmlns="http://www.w3.org/2000/svg" xmlns:xlink="http://www.w3.org/1999/xlink" x="0px" y="0px"
	 viewBox="0 0 197.4 57.2" style="enable-background:new 0 0 197.4 57.2;" xml:space="preserve">
<style type="text/css">
	.st0{clip-path:url(#SVGID_2_);fill:#1A1918;}
</style>
<g>
	<g>
		<defs>
			<rect id="SVGID_1_" x="-76.3" y="-21.3" width="350" height="100"/>
		</defs>
		<clipPath id="SVGID_2_">
			<use xlink:href="#SVGID_1_"  style="overflow:visible;"/>
		</clipPath>
		<path class="st0" d="M20.9,19.4c-1.2-1.5-2.9-2.7-5.4-2.7c-6.3,0-7.6,5.9-7.6,10.8c0,4.8,1.3,10.7,7.6,10.7c2.5,0,4.2-1.2,5.4-2.7
			c1.6-2.2,2.1-5.2,2.1-8C23,24.7,22.6,21.6,20.9,19.4 M25.2,42.3c-2,1.6-4.8,2.7-8.1,2.7c-4,0-7.2-1.4-8.7-3.3v15.2h-8v-46h6.9
			l0.5,3.7c2-3.1,5.7-4.4,9.3-4.4c3.3,0,6,1.2,8,2.8c4,3.3,5.9,8.3,5.9,14.5C31.2,34,29.1,39.1,25.2,42.3 M57.2,29.4L48.7,30
			c-2.5,0.2-4.8,1.6-4.8,4.4c0,2.6,2.3,4.2,4.8,4.2c5,0,8.5-2.7,8.5-7.6V29.4L57.2,29.4z M63.9,44.7c-3.5,0-5.4-2.2-5.7-4.7
			c-1.6,2.7-5.4,5-10.1,5c-8,0-12.1-5-12.1-10.4c0-6.3,4.9-10,11.3-10.4l9.8-0.7v-2c0-3.1-1.1-5.3-5.7-5.3c-3.8,0-5.9,1.6-6.1,4.8
			h-7.8c0.5-7.5,6.4-10.8,13.8-10.8c5.7,0,10.6,1.8,12.5,6.8c0.8,2.1,1,4.5,1,6.8v12.3c0,1.6,0.5,2.1,1.8,2.1c0.5,0,1-0.1,1-0.1V44
			C66.6,44.4,65.8,44.7,63.9,44.7 M97.9,41.2C95.2,43.9,91,45,86.5,45c-4.2,0-8-1.2-10.8-3.8c-1.9-1.8-3.5-4.6-3.5-7.8h7.5
			c0,1.5,0.8,3.1,1.8,3.9c1.3,1,2.7,1.5,5,1.5c2.7,0,6.8-0.5,6.8-4.2c0-1.9-1.3-3.2-3.3-3.5c-2.9-0.5-6.3-0.6-9.2-1.3
			c-4.6-1-7.6-4.7-7.6-8.9c0-3.4,1.4-5.8,3.4-7.5c2.5-2.1,5.9-3.3,10.1-3.3c4,0,8,1.3,10.4,3.9c1.8,1.9,2.9,4.4,2.9,6.9h-7.6
			c0-1.3-0.5-2.3-1.4-3.1c-1-1-2.7-1.6-4.4-1.6c-1.2,0-2.3,0-3.5,0.5c-1.4,0.5-2.6,1.8-2.6,3.5c0,2.4,2,3.1,3.8,3.3
			c3,0.4,3.8,0.5,7.1,1c5.3,0.8,9.1,4.2,9.1,9.4C100.7,37.1,99.6,39.5,97.9,41.2 M120,44.7c-6.8,0-10.1-3.8-10.1-10.2v-17h-6.1v-6.6
			h6.1V2.4l8-2v10.4h8.4v6.6h-8.4v16.3c0,2.6,1.2,3.7,3.7,3.7c1.6,0,3-0.1,5.2-0.3v6.8C124.5,44.3,122.3,44.7,120,44.7 M151.3,19.2
			c-1.1-1.2-2.9-2.1-5-2.1s-4,1-5,2.1c-1.9,2.1-2.4,5.3-2.4,8.4c0,3.1,0.5,6.3,2.4,8.4c1.1,1.2,2.9,2.1,5,2.1s4-1,5-2.1
			c1.9-2.1,2.4-5.3,2.4-8.4C153.7,24.4,153.2,21.3,151.3,19.2 M157.9,39.8c-2.3,2.8-6.6,5.2-11.7,5.2c-5,0-9.3-2.4-11.7-5.2
			c-2.5-3.1-3.9-6.7-3.9-12.3c0-5.7,1.4-9.1,3.9-12.3c2.3-2.8,6.6-5.2,11.7-5.2c5,0,9.3,2.4,11.7,5.2c2.5,3.1,3.9,6.7,3.9,12.3
			C161.8,33.2,160.4,36.7,157.9,39.8 M187.6,18.3c-1.1-1.2-2.7-1.9-5-1.9c-2.5,0-4.4,1-5.6,2.6c-1.2,1.5-1.7,3-1.7,5.2h14.4
			C189.6,21.7,188.9,19.8,187.6,18.3 M197,30h-22.3c-0.1,2.6,0.8,5,2.5,6.5c1.2,1.1,2.7,2,4.9,2c2.3,0,3.8-0.5,4.8-1.6
			c0.7-0.7,1.3-1.6,1.6-2.8h7.7c-0.2,2-1.6,4.6-2.8,6.1c-2.8,3.3-7,4.7-11.2,4.7c-4.6,0-7.9-1.6-10.5-4.1c-3.3-3.2-5.1-7.9-5.1-13.3
			c0-5.3,1.6-10.1,4.8-13.4c2.5-2.6,6.1-4.2,10.6-4.2c4.9,0,9.4,2,12.2,6.1c2.5,3.7,3,7.4,2.9,11.6C197,27.8,197,29.3,197,30"/>
	</g>
</g>
</svg>
