<?xml version="1.0" standalone="no"?>
<!DOCTYPE svg PUBLIC "-//W3C//DTD SVG 20010904//EN"
 "http://www.w3.org/TR/2001/REC-SVG-20010904/DTD/svg10.dtd">
<svg version="1.0" xmlns="http://www.w3.org/2000/svg"
 width="358.000000pt" height="358.000000pt" viewBox="0 0 358.000000 358.000000"
 preserveAspectRatio="xMidYMid meet">
<metadata>
Created by potrace 1.14, written by Peter Selinger 2001-2017
</metadata>
<g transform="translate(0.000000,358.000000) scale(0.100000,-0.100000)"
fill="#000000" stroke="none">
<path d="M10 2637 c0 -1012 -2 -977 52 -1005 35 -19 80 -21 110 -6 60 31 58
-4 58 899 0 454 3 826 8 826 4 1 454 2 1001 3 l993 1 -5 -50 c-10 -81 -26
-124 -65 -166 -64 -72 -193 -120 -357 -133 -44 -4 -100 -9 -125 -11 -25 -2
-93 -7 -152 -10 -177 -10 -256 -19 -367 -41 -205 -42 -351 -136 -413 -264 -33
-69 -39 -100 -39 -192 0 -132 41 -230 129 -309 88 -80 186 -116 357 -134 104
-10 149 -16 175 -21 14 -2 36 -6 49 -9 138 -26 207 -98 187 -193 -16 -71 -142
-140 -301 -166 -62 -10 -144 -16 -280 -21 -132 -5 -161 -7 -293 -21 -87 -8
-239 -52 -317 -90 -215 -105 -359 -313 -394 -567 -7 -46 -11 -256 -11 -512 l0
-433 28 -4 c36 -5 226 -1 309 6 185 17 336 110 424 261 28 47 73 173 83 232 3
14 10 49 15 77 17 87 21 135 27 333 l7 192 -37 37 c-34 34 -40 36 -84 31 -37
-4 -52 -12 -74 -38 -27 -32 -28 -38 -29 -144 -2 -409 -65 -635 -197 -712 -50
-30 -142 -52 -210 -53 l-43 0 4 352 c2 194 7 367 11 383 37 158 130 287 254
353 32 17 91 40 132 51 69 18 96 23 215 36 22 2 110 7 195 10 273 11 371 27
509 81 192 75 294 222 277 397 -10 109 -68 203 -162 263 -57 36 -187 78 -274
88 -30 4 -66 9 -80 11 -14 2 -54 7 -90 10 -140 12 -223 48 -266 113 -26 40
-31 159 -9 202 32 61 106 107 227 139 100 27 175 35 528 56 324 20 507 82 627
214 91 98 117 190 138 491 l7 95 -1231 0 -1231 0 0 -938z"/>
<path d="M3414 2441 c-18 -11 -36 -25 -40 -33 -5 -7 -11 -501 -14 -1098 l-5
-1085 -522 0 -523 0 -32 -33 c-28 -27 -32 -39 -32 -78 2 -53 30 -89 79 -102
17 -4 305 -8 640 -8 l610 1 3 1183 c2 1040 0 1186 -13 1212 -28 54 -99 73
-151 41z"/>
</g>
</svg>
