<?xml version="1.0" encoding="utf-8"?>
<!-- Generator: Adobe Illustrator 27.2.0, SVG Export Plug-In . SVG Version: 6.00 Build 0)  -->
<svg version="1.1" id="Laag_1" xmlns="http://www.w3.org/2000/svg" xmlns:xlink="http://www.w3.org/1999/xlink" x="0px" y="0px"
	 viewBox="0 0 170.08 56.69" enable-background="new 0 0 170.08 56.69" xml:space="preserve">
<g>
	<path d="M33.03,38.78c-1.47,1.2-3.4,1.93-5.84,1.93c-2.85,0-5.16-1.01-6.26-2.35v10.91h-5.75V16.18h4.97l0.37,2.62
		c1.43-2.21,4.1-3.18,6.72-3.18c2.39,0,4.33,0.83,5.8,2.02c2.86,2.35,4.28,5.94,4.28,10.45C37.31,32.8,35.88,36.44,33.03,38.78z
		 M29.95,22.35c-0.83-1.06-2.07-1.89-3.87-1.89c-4.51,0-5.43,4.28-5.43,7.73c0,3.45,0.92,7.69,5.43,7.69c1.8,0,3.04-0.83,3.87-1.89
		c1.2-1.56,1.52-3.73,1.52-5.8C31.46,26.12,31.14,23.92,29.95,22.35z"/>
	<path d="M60.83,40.49c-2.49,0-3.87-1.56-4.05-3.36c-1.1,1.93-3.86,3.59-7.27,3.59c-5.71,0-8.65-3.59-8.65-7.5
		c0-4.56,3.54-7.18,8.1-7.5L56,25.21v-1.47c0-2.26-0.78-3.77-4.05-3.77c-2.67,0-4.24,1.2-4.37,3.41h-5.57
		c0.32-5.39,4.6-7.78,9.94-7.78c4.1,0,7.6,1.29,8.98,4.88c0.6,1.52,0.69,3.22,0.69,4.83v8.88c0,1.1,0.37,1.52,1.34,1.52
		c0.37,0,0.73-0.09,0.73-0.09v4.23C62.72,40.26,62.21,40.49,60.83,40.49z M56,29.48l-6.08,0.46c-1.75,0.14-3.45,1.2-3.45,3.13
		c0,1.84,1.61,2.99,3.41,2.99c3.59,0,6.12-1.93,6.12-5.48V29.48z"/>
	<path d="M85.23,37.95c-1.93,1.93-4.93,2.76-8.19,2.76c-3.04,0-5.75-0.88-7.73-2.76c-1.38-1.33-2.53-3.31-2.53-5.57h5.38
		c0,1.06,0.55,2.21,1.29,2.81c0.92,0.74,1.98,1.06,3.64,1.06c1.93,0,4.88-0.42,4.88-3.04c0-1.38-0.92-2.3-2.39-2.53
		c-2.12-0.32-4.51-0.46-6.63-0.92c-3.27-0.69-5.48-3.36-5.48-6.4c0-2.44,1.01-4.14,2.44-5.39c1.75-1.52,4.28-2.39,7.27-2.39
		c2.85,0,5.76,0.92,7.5,2.81c1.29,1.38,2.12,3.18,2.12,4.92h-5.48c0-0.92-0.42-1.66-0.97-2.26c-0.69-0.69-1.93-1.1-3.13-1.1
		c-0.83,0-1.61,0-2.48,0.37c-1.01,0.41-1.84,1.29-1.84,2.53c0,1.7,1.47,2.21,2.76,2.39c2.16,0.28,2.76,0.32,5.11,0.69
		c3.77,0.6,6.53,2.99,6.53,6.76C87.3,35.01,86.47,36.71,85.23,37.95z"/>
	<path d="M101.06,40.44c-4.83,0-7.23-2.76-7.23-7.36V20.92h-4.37v-4.74h4.37v-6.07l5.75-1.43v7.5h6.03v4.74h-6.03v11.65
		c0,1.84,0.83,2.62,2.67,2.62c1.2,0,2.16-0.05,3.73-0.23v4.83C104.37,40.21,102.76,40.44,101.06,40.44z"/>
	<path d="M128.31,36.99c-1.66,2.03-4.74,3.73-8.38,3.73c-3.64,0-6.72-1.7-8.38-3.73c-1.79-2.25-2.81-4.79-2.81-8.84
		c0-4.05,1.01-6.58,2.81-8.84c1.66-2.02,4.74-3.73,8.38-3.73c3.63,0,6.72,1.7,8.38,3.73c1.8,2.26,2.81,4.79,2.81,8.84
		C131.12,32.2,130.11,34.73,128.31,36.99z M123.57,22.12c-0.78-0.83-2.07-1.52-3.63-1.52c-1.57,0-2.85,0.69-3.64,1.52
		c-1.38,1.52-1.7,3.77-1.7,6.03c0,2.26,0.32,4.51,1.7,6.03c0.78,0.83,2.07,1.52,3.64,1.52c1.56,0,2.85-0.69,3.63-1.52
		c1.38-1.52,1.71-3.77,1.71-6.03C125.27,25.9,124.95,23.64,123.57,22.12z"/>
	<path d="M156.85,29.95h-16.02c-0.04,1.84,0.6,3.59,1.75,4.69c0.83,0.78,1.98,1.47,3.54,1.47c1.66,0,2.67-0.32,3.5-1.15
		c0.51-0.51,0.92-1.15,1.15-2.03h5.52c-0.14,1.43-1.1,3.32-2.03,4.42c-2.02,2.4-5.02,3.36-8.05,3.36c-3.27,0-5.66-1.15-7.55-2.95
		c-2.39-2.3-3.68-5.66-3.68-9.57c0-3.82,1.15-7.23,3.45-9.58c1.79-1.84,4.37-3.04,7.64-3.04c3.55,0,6.77,1.43,8.75,4.42
		c1.75,2.62,2.17,5.34,2.07,8.33C156.89,28.34,156.85,29.44,156.85,29.95z M149.66,21.57c-0.78-0.83-1.98-1.38-3.63-1.38
		c-1.75,0-3.18,0.74-4,1.84c-0.83,1.06-1.2,2.16-1.25,3.73h10.36C151.09,23.96,150.58,22.58,149.66,21.57z"/>
</g>
</svg>
